NotoSansNKo-Regular.ufo
<glyph name="uni060C" format="2">
  <advance width="212"/>
  <unicode hex="060C"/>
  <note>
afii57388
</note>
  <outline>
    <contour>
      <point x="102" y="75" type="curve" smooth="yes"/>
      <point x="135" y="75"/>
      <point x="163" y="103"/>
      <point x="169" y="142" type="curve"/>
      <point x="134" y="153"/>
      <point x="113" y="163"/>
      <point x="113" y="181" type="curve" smooth="yes"/>
      <point x="113" y="216"/>
      <point x="137" y="282"/>
      <point x="169" y="317" type="curve"/>
      <point x="142" y="339" type="line"/>
      <point x="85" y="279"/>
      <point x="40" y="191"/>
      <point x="40" y="141" type="curve" smooth="yes"/>
      <point x="40" y="108"/>
      <point x="63" y="75"/>
    </contour>
  </outline>
</glyph>
<glyph name="uni061B" format="2">
  <advance width="212"/>
  <unicode hex="061B"/>
  <note>
afii57403
</note>
  <outline>
    <contour>
      <point x="106" y="311" type="curve" smooth="yes"/>
      <point x="140" y="311"/>
      <point x="167" y="338"/>
      <point x="173" y="377" type="curve"/>
      <point x="139" y="389"/>
      <point x="118" y="398"/>
      <point x="118" y="417" type="curve" smooth="yes"/>
      <point x="118" y="452"/>
      <point x="142" y="517"/>
      <point x="173" y="552" type="curve"/>
      <point x="146" y="575" type="line"/>
      <point x="89" y="514"/>
      <point x="44" y="427"/>
      <point x="44" y="376" type="curve" smooth="yes"/>
      <point x="44" y="345"/>
      <point x="68" y="311"/>
    </contour>
    <contour>
      <point x="125" y="69" type="curve"/>
      <point x="153" y="108"/>
      <point x="167" y="132"/>
      <point x="167" y="140" type="curve" smooth="yes"/>
      <point x="167" y="149"/>
      <point x="141" y="169"/>
      <point x="90" y="199" type="curve"/>
      <point x="76" y="178"/>
      <point x="68" y="162"/>
      <point x="46" y="121" type="curve"/>
      <point x="66" y="109"/>
      <point x="93" y="91"/>
    </contour>
  </outline>
</glyph>
<glyph name="uni061F" format="2">
  <advance width="425"/>
  <unicode hex="061F"/>
  <note>
afii57407
</note>
  <outline>
    <contour>
      <point x="239" y="232" type="line"/>
      <point x="262" y="278"/>
      <point x="273" y="315"/>
      <point x="273" y="343" type="curve" smooth="yes"/>
      <point x="273" y="369"/>
      <point x="263" y="392"/>
      <point x="243" y="413" type="curve" smooth="yes"/>
      <point x="223" y="433"/>
      <point x="186" y="456"/>
      <point x="124" y="484" type="curve" smooth="yes"/>
      <point x="110" y="490"/>
      <point x="100" y="495"/>
      <point x="91" y="501" type="curve"/>
      <point x="113" y="567"/>
      <point x="171" y="611"/>
      <point x="232" y="611" type="curve" smooth="yes"/>
      <point x="278" y="611"/>
      <point x="303" y="600"/>
      <point x="343" y="563" type="curve"/>
      <point x="363" y="580"/>
      <point x="373" y="599"/>
      <point x="373" y="618" type="curve" smooth="yes"/>
      <point x="373" y="633"/>
      <point x="368" y="640"/>
      <point x="359" y="650" type="curve" smooth="yes"/>
      <point x="331" y="681"/>
      <point x="292" y="696"/>
      <point x="243" y="696" type="curve" smooth="yes"/>
      <point x="131" y="696"/>
      <point x="55" y="583"/>
      <point x="55" y="498" type="curve" smooth="yes"/>
      <point x="55" y="450"/>
      <point x="81" y="415"/>
      <point x="132" y="387" type="curve" smooth="yes"/>
      <point x="162" y="370"/>
      <point x="182" y="356"/>
      <point x="192" y="346" type="curve" smooth="yes"/>
      <point x="203" y="336"/>
      <point x="208" y="324"/>
      <point x="208" y="311" type="curve" smooth="yes"/>
      <point x="208" y="302"/>
      <point x="206" y="284"/>
      <point x="201" y="256" type="curve"/>
    </contour>
    <contour>
      <point x="217" y="64" type="curve"/>
      <point x="245" y="104"/>
      <point x="258" y="128"/>
      <point x="258" y="135" type="curve" smooth="yes"/>
      <point x="258" y="149"/>
      <point x="211" y="177"/>
      <point x="182" y="194" type="curve"/>
      <point x="166" y="170"/>
      <point x="151" y="136"/>
      <point x="138" y="116" type="curve"/>
      <point x="164" y="101"/>
      <point x="183" y="89"/>
    </contour>
  </outline>
</glyph>
<glyph name="uni066A" format="2">
  <advance width="401"/>
  <unicode hex="066A"/>
  <note>
afii57381
</note>
  <outline>
    <contour>
      <point x="88" y="75" type="curve"/>
      <point x="137" y="176"/>
      <point x="255" y="411"/>
      <point x="341" y="572" type="curve" smooth="yes"/>
      <point x="343" y="576"/>
      <point x="344" y="582"/>
      <point x="344" y="588" type="curve"/>
      <point x="344" y="608"/>
      <point x="332" y="629"/>
      <point x="316" y="641" type="curve"/>
      <point x="230" y="482"/>
      <point x="105" y="234"/>
      <point x="53" y="124" type="curve"/>
      <point x="61" y="104"/>
      <point x="73" y="87"/>
    </contour>
    <contour>
      <point x="317" y="121" type="curve"/>
      <point x="351" y="169"/>
      <point x="367" y="198"/>
      <point x="367" y="207" type="curve" smooth="yes"/>
      <point x="367" y="223"/>
      <point x="313" y="259"/>
      <point x="275" y="280" type="curve"/>
      <point x="265" y="265"/>
      <point x="230" y="200"/>
      <point x="221" y="185" type="curve"/>
      <point x="252" y="167"/>
      <point x="284" y="146"/>
    </contour>
    <contour>
      <point x="130" y="449" type="curve"/>
      <point x="164" y="496"/>
      <point x="180" y="525"/>
      <point x="180" y="534" type="curve" smooth="yes"/>
      <point x="180" y="551"/>
      <point x="128" y="584"/>
      <point x="88" y="607" type="curve"/>
      <point x="77" y="591"/>
      <point x="43" y="528"/>
      <point x="34" y="512" type="curve"/>
      <point x="60" y="498"/>
      <point x="92" y="477"/>
    </contour>
  </outline>
</glyph>
<glyph name="uni07C0" format="2">
  <advance width="540"/>
  <unicode hex="07C0"/>
  <outline>
    <contour>
      <point x="277" y="-10" type="curve" smooth="yes"/>
      <point x="425" y="-10"/>
      <point x="486" y="140"/>
      <point x="486" y="352" type="curve" smooth="yes"/>
      <point x="486" y="581"/>
      <point x="415" y="714"/>
      <point x="269" y="714" type="curve" smooth="yes"/>
      <point x="118" y="714"/>
      <point x="54" y="584"/>
      <point x="54" y="352" type="curve" smooth="yes"/>
      <point x="54" y="125"/>
      <point x="122" y="-10"/>
    </contour>
    <contour>
      <point x="273" y="68" type="curve" smooth="yes"/>
      <point x="178" y="68"/>
      <point x="142" y="162"/>
      <point x="142" y="350" type="curve" smooth="yes"/>
      <point x="142" y="541"/>
      <point x="176" y="636"/>
      <point x="269" y="636" type="curve" smooth="yes"/>
      <point x="361" y="636"/>
      <point x="397" y="541"/>
      <point x="397" y="350" type="curve" smooth="yes"/>
      <point x="397" y="168"/>
      <point x="361" y="68"/>
    </contour>
  </outline>
</glyph>
<glyph name="uni07C1" format="2">
  <advance width="542"/>
  <unicode hex="07C1"/>
  <outline>
    <contour>
      <point x="90" y="0" type="line"/>
      <point x="481" y="0" type="line"/>
      <point x="481" y="78" type="line"/>
      <point x="320" y="78" type="line"/>
      <point x="320" y="529" type="line" smooth="yes"/>
      <point x="320" y="569"/>
      <point x="319" y="604"/>
      <point x="318" y="638" type="curve"/>
      <point x="326" y="618"/>
      <point x="343" y="580"/>
      <point x="355" y="557" type="curve" smooth="yes"/>
      <point x="427" y="421" type="line"/>
      <point x="497" y="459" type="line"/>
      <point x="362" y="714" type="line"/>
      <point x="231" y="714" type="line"/>
      <point x="231" y="78" type="line"/>
      <point x="90" y="78" type="line"/>
    </contour>
  </outline>
</glyph>
<glyph name="uni07C2" format="2">
  <advance width="545"/>
  <unicode hex="07C2"/>
  <outline>
    <contour>
      <point x="117" y="0" type="line"/>
      <point x="206" y="0" type="line"/>
      <point x="206" y="714" type="line"/>
      <point x="117" y="714" type="line"/>
    </contour>
    <contour>
      <point x="117" y="373" type="line"/>
      <point x="474" y="373" type="line"/>
      <point x="474" y="451" type="line"/>
      <point x="117" y="451" type="line"/>
    </contour>
    <contour>
      <point x="385" y="373" type="line"/>
      <point x="474" y="373" type="line"/>
      <point x="474" y="714" type="line"/>
      <point x="385" y="714" type="line"/>
    </contour>
  </outline>
</glyph>
<glyph name="uni07C3" format="2">
  <advance width="514"/>
  <unicode hex="07C3"/>
  <outline>
    <contour>
      <point x="326" y="0" type="line"/>
      <point x="415" y="0" type="line"/>
      <point x="415" y="714" type="line"/>
      <point x="326" y="714" type="line"/>
    </contour>
    <contour>
      <point x="148" y="0" type="line"/>
      <point x="415" y="0" type="line"/>
      <point x="415" y="78" type="line"/>
      <point x="148" y="78" type="line"/>
    </contour>
    <contour>
      <point x="148" y="282" type="line"/>
      <point x="415" y="282" type="line"/>
      <point x="415" y="360" type="line"/>
      <point x="148" y="360" type="line"/>
    </contour>
  </outline>
</glyph>
<glyph name="uni07C4" format="2">
  <advance width="539"/>
  <unicode hex="07C4"/>
  <outline>
    <contour>
      <point x="99" y="0" type="line"/>
      <point x="188" y="0" type="line"/>
      <point x="188" y="412" type="line"/>
      <point x="99" y="412" type="line"/>
    </contour>
    <contour>
      <point x="129" y="0" type="line"/>
      <point x="396" y="0" type="line"/>
      <point x="396" y="78" type="line"/>
      <point x="129" y="78" type="line"/>
    </contour>
    <contour>
      <point x="129" y="334" type="line"/>
      <point x="396" y="334" type="line"/>
      <point x="396" y="412" type="line"/>
      <point x="129" y="412" type="line"/>
    </contour>
    <contour>
      <point x="307" y="334" type="line"/>
      <point x="396" y="334" type="line"/>
      <point x="396" y="714" type="line"/>
      <point x="307" y="714" type="line"/>
    </contour>
  </outline>
</glyph>
<glyph name="uni07C5" format="2">
  <advance width="539"/>
  <unicode hex="07C5"/>
  <outline>
    <contour>
      <point x="143" y="0" type="line"/>
      <point x="232" y="0" type="line"/>
      <point x="232" y="714" type="line"/>
      <point x="143" y="714" type="line"/>
    </contour>
    <contour>
      <point x="143" y="334" type="line"/>
      <point x="426" y="334" type="line"/>
      <point x="426" y="412" type="line"/>
      <point x="143" y="412" type="line"/>
    </contour>
  </outline>
</glyph>
<glyph name="uni07C6" format="2">
  <advance width="525"/>
  <unicode hex="07C6"/>
  <outline>
    <contour>
      <point x="337" y="0" type="line"/>
      <point x="426" y="0" type="line"/>
      <point x="426" y="412" type="line"/>
      <point x="337" y="412" type="line"/>
    </contour>
    <contour>
      <point x="99" y="334" type="line"/>
      <point x="396" y="334" type="line"/>
      <point x="396" y="412" type="line"/>
      <point x="99" y="412" type="line"/>
    </contour>
    <contour>
      <point x="99" y="334" type="line"/>
      <point x="188" y="334" type="line"/>
      <point x="188" y="714" type="line"/>
      <point x="99" y="714" type="line"/>
    </contour>
  </outline>
</glyph>
<glyph name="uni07C7" format="2">
  <advance width="542"/>
  <unicode hex="07C7"/>
  <outline>
    <contour>
      <point x="103" y="0" type="line"/>
      <point x="213" y="0" type="line"/>
      <point x="495" y="495" type="line"/>
      <point x="425" y="533" type="line"/>
      <point x="229" y="189" type="line" smooth="yes"/>
      <point x="216" y="167"/>
      <point x="198" y="129"/>
      <point x="190" y="109" type="curve"/>
      <point x="191" y="143"/>
      <point x="192" y="178"/>
      <point x="192" y="218" type="curve" smooth="yes"/>
      <point x="192" y="714" type="line"/>
      <point x="103" y="714" type="line"/>
    </contour>
  </outline>
</glyph>
<glyph name="uni07C8" format="2">
  <advance width="542"/>
  <unicode hex="07C8"/>
  <outline>
    <contour>
      <point x="103" y="0" type="line"/>
      <point x="213" y="0" type="line"/>
      <point x="486" y="478" type="line"/>
      <point x="416" y="516" type="line"/>
      <point x="229" y="189" type="line" smooth="yes"/>
      <point x="216" y="167"/>
      <point x="198" y="129"/>
      <point x="190" y="109" type="curve"/>
      <point x="191" y="143"/>
      <point x="192" y="178"/>
      <point x="192" y="218" type="curve" smooth="yes"/>
      <point x="192" y="714" type="line"/>
      <point x="103" y="714" type="line"/>
    </contour>
    <contour>
      <point x="173" y="444" type="line"/>
      <point x="383" y="444" type="line"/>
      <point x="486" y="478" type="line"/>
      <point x="486" y="522" type="line"/>
      <point x="112" y="522" type="line"/>
      <point x="112" y="477" type="line"/>
    </contour>
  </outline>
</glyph>
<glyph name="uni07C9" format="2">
  <advance width="554"/>
  <unicode hex="07C9"/>
  <outline>
    <contour>
      <point x="276" y="389" type="curve" smooth="yes"/>
      <point x="399" y="389"/>
      <point x="459" y="461"/>
      <point x="459" y="550" type="curve" smooth="yes"/>
      <point x="459" y="642"/>
      <point x="399" y="714"/>
      <point x="276" y="714" type="curve" smooth="yes"/>
      <point x="159" y="714"/>
      <point x="95" y="642"/>
      <point x="95" y="552" type="curve" smooth="yes"/>
      <point x="95" y="459"/>
      <point x="159" y="389"/>
    </contour>
    <contour>
      <point x="232" y="-11" type="line"/>
      <point x="321" y="-11" type="line"/>
      <point x="321" y="435" type="line"/>
      <point x="232" y="435" type="line"/>
    </contour>
    <contour>
      <point x="277" y="462" type="curve" smooth="yes"/>
      <point x="210" y="462"/>
      <point x="185" y="507"/>
      <point x="185" y="555" type="curve" smooth="yes"/>
      <point x="185" y="596"/>
      <point x="212" y="641"/>
      <point x="277" y="641" type="curve" smooth="yes"/>
      <point x="342" y="641"/>
      <point x="369" y="596"/>
      <point x="369" y="551" type="curve" smooth="yes"/>
      <point x="369" y="509"/>
      <point x="344" y="462"/>
    </contour>
  </outline>
</glyph>
<glyph name="uni07CA" format="2">
  <advance width="265"/>
  <unicode hex="07CA"/>
  <outline>
    <contour>
      <point x="88" y="0" type="line"/>
      <point x="177" y="0" type="line"/>
      <point x="177" y="714" type="line"/>
      <point x="88" y="714" type="line"/>
    </contour>
  </outline>
</glyph>
<glyph name="uni07CB" format="2">
  <advance width="660"/>
  <unicode hex="07CB"/>
  <outline>
    <contour>
      <point x="329" y="-10" type="curve" smooth="yes"/>
      <point x="481" y="-10"/>
      <point x="591" y="106"/>
      <point x="591" y="271" type="curve" smooth="yes"/>
      <point x="591" y="418"/>
      <point x="492" y="534"/>
      <point x="332" y="534" type="curve" smooth="yes"/>
      <point x="186" y="534"/>
      <point x="69" y="423"/>
      <point x="69" y="264" type="curve" smooth="yes"/>
      <point x="69" y="96"/>
      <point x="175" y="-10"/>
    </contour>
    <contour>
      <point x="331" y="68" type="curve" smooth="yes"/>
      <point x="209" y="68"/>
      <point x="160" y="166"/>
      <point x="160" y="257" type="curve" smooth="yes"/>
      <point x="160" y="376"/>
      <point x="231" y="456"/>
      <point x="330" y="456" type="curve" smooth="yes"/>
      <point x="438" y="456"/>
      <point x="500" y="376"/>
      <point x="500" y="264" type="curve" smooth="yes"/>
      <point x="500" y="155"/>
      <point x="436" y="68"/>
    </contour>
  </outline>
</glyph>
<glyph name="uni07CC" format="2">
  <advance width="437"/>
  <unicode hex="07CC"/>
  <outline>
    <contour>
      <point x="174" y="350" type="line"/>
      <point x="263" y="350" type="line"/>
      <point x="433" y="714" type="line"/>
      <point x="345" y="714" type="line"/>
      <point x="257" y="524" type="line" smooth="yes"/>
      <point x="244" y="496"/>
      <point x="229" y="461"/>
      <point x="218" y="431" type="curve"/>
      <point x="207" y="461"/>
      <point x="191" y="498"/>
      <point x="178" y="527" type="curve" smooth="yes"/>
      <point x="92" y="714" type="line"/>
      <point x="4" y="714" type="line"/>
    </contour>
    <contour>
      <point x="174" y="0" type="line"/>
      <point x="263" y="0" type="line"/>
      <point x="263" y="414" type="line"/>
      <point x="174" y="414" type="line"/>
    </contour>
  </outline>
</glyph>
<glyph name="uni07CE" format="2">
  <advance width="593"/>
  <unicode hex="07CE"/>
  <outline>
    <contour>
      <point x="416" y="0" type="line"/>
      <point x="505" y="0" type="line"/>
      <point x="505" y="513" type="line"/>
      <point x="416" y="513" type="line"/>
    </contour>
    <contour>
      <point x="142" y="0" type="line"/>
      <point x="505" y="0" type="line"/>
      <point x="505" y="78" type="line"/>
      <point x="142" y="78" type="line"/>
    </contour>
    <contour>
      <point x="88" y="0" type="line"/>
      <point x="177" y="0" type="line"/>
      <point x="177" y="513" type="line"/>
      <point x="88" y="513" type="line"/>
    </contour>
  </outline>
</glyph>
<glyph name="uni07CF" format="2">
  <advance width="551"/>
  <unicode hex="07CF"/>
  <outline>
    <contour>
      <point x="374" y="0" type="line"/>
      <point x="463" y="0" type="line"/>
      <point x="463" y="500" type="line"/>
      <point x="374" y="500" type="line"/>
    </contour>
    <contour>
      <point x="49" y="0" type="line"/>
      <point x="463" y="0" type="line"/>
      <point x="463" y="78" type="line"/>
      <point x="49" y="78" type="line"/>
    </contour>
    <contour>
      <point x="49" y="435" type="line"/>
      <point x="463" y="435" type="line"/>
      <point x="463" y="513" type="line"/>
      <point x="49" y="513" type="line"/>
    </contour>
  </outline>
</glyph>
<glyph name="uni07D0" format="2">
  <advance width="645"/>
  <unicode hex="07D0"/>
  <outline>
    <contour>
      <point x="327" y="303" type="curve" smooth="yes"/>
      <point x="500" y="303"/>
      <point x="583" y="394"/>
      <point x="583" y="507" type="curve" smooth="yes"/>
      <point x="583" y="623"/>
      <point x="502" y="714"/>
      <point x="324" y="714" type="curve" smooth="yes"/>
      <point x="147" y="714"/>
      <point x="62" y="623"/>
      <point x="62" y="507" type="curve" smooth="yes"/>
      <point x="62" y="391"/>
      <point x="147" y="303"/>
    </contour>
    <contour>
      <point x="111" y="0" type="line"/>
      <point x="533" y="0" type="line"/>
      <point x="533" y="78" type="line"/>
      <point x="111" y="78" type="line"/>
    </contour>
    <contour>
      <point x="278" y="0" type="line"/>
      <point x="367" y="0" type="line"/>
      <point x="367" y="362" type="line"/>
      <point x="278" y="362" type="line"/>
    </contour>
    <contour>
      <point x="327" y="381" type="curve" smooth="yes"/>
      <point x="201" y="381"/>
      <point x="151" y="441"/>
      <point x="151" y="508" type="curve" smooth="yes"/>
      <point x="151" y="586"/>
      <point x="217" y="636"/>
      <point x="323" y="636" type="curve" smooth="yes"/>
      <point x="429" y="636"/>
      <point x="494" y="586"/>
      <point x="494" y="507" type="curve" smooth="yes"/>
      <point x="494" y="433"/>
      <point x="429" y="381"/>
    </contour>
  </outline>
</glyph>
<glyph name="uni07D1" format="2">
  <advance width="522"/>
  <unicode hex="07D1"/>
  <outline>
    <contour>
      <point x="210" y="366" type="line"/>
      <point x="304" y="366" type="line"/>
      <point x="314" y="453"/>
      <point x="335" y="576"/>
      <point x="354" y="669" type="curve"/>
      <point x="289" y="669" type="line"/>
      <point x="257" y="580"/>
      <point x="221" y="464"/>
      <point x="203" y="377" type="curve"/>
    </contour>
    <contour>
      <point x="50" y="0" type="line"/>
      <point x="472" y="0" type="line"/>
      <point x="472" y="78" type="line"/>
      <point x="50" y="78" type="line"/>
    </contour>
  </outline>
</glyph>
<glyph name="uni07D2" format="2">
  <advance width="685"/>
  <unicode hex="07D2"/>
  <outline>
    <contour>
      <point x="299" y="244" type="line"/>
      <point x="388" y="244" type="line"/>
      <point x="388" y="535" type="line" smooth="yes"/>
      <point x="388" y="647"/>
      <point x="326" y="714"/>
      <point x="220" y="714" type="curve" smooth="yes"/>
      <point x="109" y="714"/>
      <point x="46" y="642"/>
      <point x="46" y="550" type="curve" smooth="yes"/>
      <point x="46" y="435"/>
      <point x="122" y="377"/>
      <point x="235" y="377" type="curve" smooth="yes"/>
      <point x="590" y="377" type="line"/>
      <point x="590" y="455" type="line"/>
      <point x="241" y="455" type="line" smooth="yes"/>
      <point x="172" y="455"/>
      <point x="135" y="491"/>
      <point x="135" y="548" type="curve" smooth="yes"/>
      <point x="135" y="593"/>
      <point x="158" y="636"/>
      <point x="217" y="636" type="curve" smooth="yes"/>
      <point x="278" y="636"/>
      <point x="299" y="591"/>
      <point x="299" y="544" type="curve" smooth="yes"/>
    </contour>
    <contour>
      <point x="508" y="0" type="line"/>
      <point x="597" y="0" type="line"/>
      <point x="597" y="455" type="line"/>
      <point x="508" y="455" type="line"/>
    </contour>
  </outline>
</glyph>
<glyph name="uni07D3" format="2">
  <advance width="419"/>
  <unicode hex="07D3"/>
  <outline>
    <contour>
      <point x="88" y="0" type="line"/>
      <point x="177" y="0" type="line"/>
      <point x="177" y="714" type="line"/>
      <point x="88" y="714" type="line"/>
    </contour>
    <contour>
      <point x="104" y="352" type="line"/>
      <point x="351" y="352" type="line"/>
      <point x="351" y="430" type="line"/>
      <point x="104" y="430" type="line"/>
    </contour>
    <contour>
      <point x="104" y="636" type="line"/>
      <point x="351" y="636" type="line"/>
      <point x="351" y="714" type="line"/>
      <point x="104" y="714" type="line"/>
    </contour>
  </outline>
</glyph>
<glyph name="uni07D4" format="2">
  <advance width="419"/>
  <unicode hex="07D4"/>
  <outline>
    <contour>
      <point x="242" y="0" type="line"/>
      <point x="331" y="0" type="line"/>
      <point x="331" y="714" type="line"/>
      <point x="242" y="714" type="line"/>
    </contour>
    <contour>
      <point x="68" y="352" type="line"/>
      <point x="315" y="352" type="line"/>
      <point x="315" y="430" type="line"/>
      <point x="68" y="430" type="line"/>
    </contour>
    <contour>
      <point x="68" y="636" type="line"/>
      <point x="315" y="636" type="line"/>
      <point x="315" y="714" type="line"/>
      <point x="68" y="714" type="line"/>
    </contour>
  </outline>
</glyph>
<glyph name="uni07D7" format="2">
  <advance width="377"/>
  <unicode hex="07D7"/>
  <outline>
    <contour>
      <point x="200" y="0" type="line"/>
      <point x="289" y="0" type="line"/>
      <point x="289" y="714" type="line"/>
      <point x="179" y="714" type="line"/>
      <point x="35" y="460" type="line"/>
      <point x="105" y="422" type="line"/>
      <point x="163" y="525" type="line" smooth="yes"/>
      <point x="176" y="547"/>
      <point x="194" y="585"/>
      <point x="202" y="605" type="curve"/>
      <point x="201" y="571"/>
      <point x="200" y="536"/>
      <point x="200" y="496" type="curve"/>
    </contour>
  </outline>
</glyph>
<glyph name="uni07D8" format="2">
  <advance width="792"/>
  <unicode hex="07D8"/>
  <outline>
    <contour>
      <point x="88" y="0" type="line"/>
      <point x="704" y="0" type="line"/>
      <point x="704" y="297" type="line" smooth="yes"/>
      <point x="704" y="449"/>
      <point x="635" y="520"/>
      <point x="520" y="520" type="curve" smooth="yes"/>
      <point x="440" y="520"/>
      <point x="385" y="473"/>
      <point x="364" y="406" type="curve"/>
      <point x="345" y="440"/>
      <point x="302" y="465"/>
      <point x="247" y="465" type="curve" smooth="yes"/>
      <point x="147" y="465"/>
      <point x="88" y="393"/>
      <point x="88" y="239" type="curve" smooth="yes"/>
    </contour>
    <contour>
      <point x="177" y="78" type="line"/>
      <point x="177" y="245" type="line" smooth="yes"/>
      <point x="177" y="326"/>
      <point x="190" y="387"/>
      <point x="254" y="387" type="curve" smooth="yes"/>
      <point x="313" y="387"/>
      <point x="331" y="335"/>
      <point x="331" y="252" type="curve" smooth="yes"/>
      <point x="331" y="78" type="line"/>
    </contour>
    <contour>
      <point x="420" y="78" type="line"/>
      <point x="420" y="301" type="line" smooth="yes"/>
      <point x="420" y="386"/>
      <point x="451" y="442"/>
      <point x="519" y="442" type="curve" smooth="yes"/>
      <point x="587" y="442"/>
      <point x="615" y="392"/>
      <point x="615" y="308" type="curve" smooth="yes"/>
      <point x="615" y="78" type="line"/>
    </contour>
  </outline>
</glyph>
<glyph name="uni07D9" format="2">
  <advance width="391"/>
  <unicode hex="07D9"/>
  <outline>
    <contour>
      <point x="151" y="0" type="line"/>
      <point x="240" y="0" type="line"/>
      <point x="240" y="714" type="line"/>
      <point x="151" y="714" type="line"/>
    </contour>
    <contour>
      <point x="39" y="435" type="line"/>
      <point x="352" y="435" type="line"/>
      <point x="352" y="513" type="line"/>
      <point x="39" y="513" type="line"/>
    </contour>
  </outline>
</glyph>
<glyph name="uni07DA" format="2">
  <advance width="650"/>
  <unicode hex="07DA"/>
  <outline>
    <contour>
      <point x="410" y="0" type="line"/>
      <point x="499" y="0" type="line"/>
      <point x="499" y="714" type="line"/>
      <point x="410" y="714" type="line"/>
    </contour>
    <contour>
      <point x="186" y="0" type="line"/>
      <point x="472" y="0" type="line"/>
      <point x="472" y="78" type="line"/>
      <point x="186" y="78" type="line"/>
    </contour>
    <contour>
      <point x="151" y="0" type="line"/>
      <point x="240" y="0" type="line"/>
      <point x="240" y="714" type="line"/>
      <point x="151" y="714" type="line"/>
    </contour>
    <contour>
      <point x="39" y="435" type="line"/>
      <point x="362" y="435" type="line"/>
      <point x="362" y="513" type="line"/>
      <point x="39" y="513" type="line"/>
    </contour>
    <contour>
      <point x="308" y="435" type="line"/>
      <point x="611" y="435" type="line"/>
      <point x="611" y="513" type="line"/>
      <point x="308" y="513" type="line"/>
    </contour>
  </outline>
</glyph>
<glyph name="uni07DB" format="2">
  <advance width="708"/>
  <unicode hex="07DB"/>
  <outline>
    <contour>
      <point x="88" y="0" type="line"/>
      <point x="177" y="0" type="line"/>
      <point x="177" y="354" type="line" smooth="yes"/>
      <point x="177" y="404"/>
      <point x="193" y="435"/>
      <point x="242" y="435" type="curve" smooth="yes"/>
      <point x="365" y="435" type="line"/>
      <point x="365" y="513" type="line"/>
      <point x="249" y="513" type="line" smooth="yes"/>
      <point x="140" y="513"/>
      <point x="88" y="463"/>
      <point x="88" y="361" type="curve" smooth="yes"/>
    </contour>
    <contour>
      <point x="170" y="0" type="line"/>
      <point x="620" y="0" type="line"/>
      <point x="620" y="78" type="line"/>
      <point x="170" y="78" type="line"/>
    </contour>
    <contour>
      <point x="531" y="0" type="line"/>
      <point x="620" y="0" type="line"/>
      <point x="620" y="500" type="line"/>
      <point x="531" y="500" type="line"/>
    </contour>
    <contour>
      <point x="273" y="435" type="line"/>
      <point x="620" y="435" type="line"/>
      <point x="620" y="513" type="line"/>
      <point x="273" y="513" type="line"/>
    </contour>
  </outline>
</glyph>
<glyph name="uni07DE" format="2">
  <advance width="544"/>
  <unicode hex="07DE"/>
  <outline>
    <contour>
      <point x="367" y="0" type="line"/>
      <point x="456" y="0" type="line"/>
      <point x="456" y="714" type="line"/>
      <point x="367" y="714" type="line"/>
    </contour>
    <contour>
      <point x="78" y="286" type="line"/>
      <point x="167" y="286" type="line"/>
      <point x="167" y="643" type="line"/>
      <point x="78" y="643" type="line"/>
    </contour>
    <contour>
      <point x="122" y="435" type="line"/>
      <point x="425" y="435" type="line"/>
      <point x="425" y="513" type="line"/>
      <point x="122" y="513" type="line"/>
    </contour>
  </outline>
</glyph>
<glyph name="uni07E1" format="2">
  <advance width="576"/>
  <unicode hex="07E1"/>
  <outline>
    <contour>
      <point x="39" y="44" type="line"/>
      <point x="130" y="44" type="line"/>
      <point x="254" y="457" type="line" smooth="yes"/>
      <point x="270" y="509"/>
      <point x="277" y="545"/>
      <point x="286" y="591" type="curve"/>
      <point x="294" y="545"/>
      <point x="303" y="515"/>
      <point x="321" y="455" type="curve" smooth="yes"/>
      <point x="444" y="44" type="line"/>
      <point x="537" y="44" type="line"/>
      <point x="332" y="714" type="line"/>
      <point x="243" y="714" type="line"/>
    </contour>
    <contour>
      <point x="39" y="0" type="line"/>
      <point x="537" y="0" type="line"/>
      <point x="537" y="44" type="line"/>
      <point x="476" y="78" type="line"/>
      <point x="95" y="78" type="line"/>
      <point x="39" y="44" type="line"/>
    </contour>
  </outline>
</glyph>
<glyph name="uni07E4" format="2">
  <advance width="544"/>
  <unicode hex="07E4"/>
  <outline>
    <contour>
      <point x="367" y="0" type="line"/>
      <point x="456" y="0" type="line"/>
      <point x="456" y="559" type="line"/>
      <point x="367" y="559" type="line"/>
    </contour>
    <contour>
      <point x="78" y="329" type="line"/>
      <point x="167" y="329" type="line"/>
      <point x="167" y="714" type="line"/>
      <point x="78" y="714" type="line"/>
    </contour>
    <contour>
      <point x="109" y="481" type="line"/>
      <point x="426" y="481" type="line"/>
      <point x="426" y="559" type="line"/>
      <point x="109" y="559" type="line"/>
    </contour>
  </outline>
</glyph>
<glyph name="uni07E5" format="2">
  <advance width="525"/>
  <unicode hex="07E5"/>
  <outline>
    <contour>
      <point x="88" y="0" type="line"/>
      <point x="177" y="0" type="line"/>
      <point x="177" y="272" type="line" smooth="yes"/>
      <point x="177" y="322"/>
      <point x="193" y="353"/>
      <point x="242" y="353" type="curve" smooth="yes"/>
      <point x="365" y="353" type="line"/>
      <point x="365" y="431" type="line"/>
      <point x="249" y="431" type="line" smooth="yes"/>
      <point x="140" y="431"/>
      <point x="88" y="381"/>
      <point x="88" y="279" type="curve" smooth="yes"/>
    </contour>
    <contour>
      <point x="152" y="0" type="line"/>
      <point x="437" y="0" type="line"/>
      <point x="437" y="78" type="line"/>
      <point x="152" y="78" type="line"/>
    </contour>
    <contour>
      <point x="348" y="0" type="line"/>
      <point x="437" y="0" type="line"/>
      <point x="437" y="714" type="line"/>
      <point x="348" y="714" type="line"/>
    </contour>
    <contour>
      <point x="98" y="636" type="line"/>
      <point x="365" y="636" type="line"/>
      <point x="365" y="714" type="line"/>
      <point x="98" y="714" type="line"/>
    </contour>
  </outline>
</glyph>
<glyph name="uni07E7" format="2">
  <advance width="529"/>
  <unicode hex="07E7"/>
  <outline>
    <contour>
      <point x="268" y="200" type="curve" smooth="yes"/>
      <point x="397" y="200"/>
      <point x="457" y="272"/>
      <point x="457" y="363" type="curve" smooth="yes"/>
      <point x="457" y="458"/>
      <point x="397" y="526"/>
      <point x="264" y="526" type="curve" smooth="yes"/>
      <point x="136" y="526"/>
      <point x="72" y="459"/>
      <point x="72" y="364" type="curve" smooth="yes"/>
      <point x="72" y="271"/>
      <point x="131" y="200"/>
    </contour>
    <contour>
      <point x="220" y="0" type="line"/>
      <point x="309" y="0" type="line"/>
      <point x="309" y="252" type="line"/>
      <point x="220" y="252" type="line"/>
    </contour>
    <contour>
      <point x="266" y="278" type="curve" smooth="yes"/>
      <point x="195" y="278"/>
      <point x="162" y="313"/>
      <point x="162" y="363" type="curve" smooth="yes"/>
      <point x="162" y="413"/>
      <point x="196" y="448"/>
      <point x="264" y="448" type="curve" smooth="yes"/>
      <point x="330" y="448"/>
      <point x="367" y="416"/>
      <point x="367" y="363" type="curve" smooth="yes"/>
      <point x="367" y="310"/>
      <point x="331" y="278"/>
    </contour>
    <contour>
      <point x="220" y="468" type="line"/>
      <point x="309" y="468" type="line"/>
      <point x="309" y="714" type="line"/>
      <point x="220" y="714" type="line"/>
    </contour>
    <contour>
      <point x="49" y="636" type="line"/>
      <point x="480" y="636" type="line"/>
      <point x="480" y="714" type="line"/>
      <point x="49" y="714" type="line"/>
    </contour>
  </outline>
</glyph>
<glyph name="uni07E8" format="2">
  <advance width="453"/>
  <unicode hex="07E8"/>
  <outline>
    <contour>
      <point x="189" y="-272" type="curve" smooth="yes"/>
      <point x="305" y="-272"/>
      <point x="396" y="-197"/>
      <point x="432" y="-44" type="curve"/>
      <point x="366" y="-44" type="line"/>
      <point x="346" y="-110"/>
      <point x="284" y="-195"/>
      <point x="210" y="-195" type="curve" smooth="yes"/>
      <point x="200" y="-195"/>
      <point x="193" y="-194"/>
      <point x="187" y="-192" type="curve"/>
      <point x="218" y="-132"/>
      <point x="268" y="-44"/>
      <point x="283" y="-13" type="curve" smooth="yes"/>
      <point x="342" y="109"/>
      <point x="387" y="192"/>
      <point x="422" y="280" type="curve"/>
      <point x="330" y="280" type="line"/>
      <point x="298" y="204"/>
      <point x="241" y="87"/>
      <point x="194" y="-5" type="curve" smooth="yes"/>
      <point x="158" y="-76"/>
      <point x="86" y="-195"/>
      <point x="86" y="-212" type="curve" smooth="yes"/>
      <point x="86" y="-242"/>
      <point x="122" y="-272"/>
    </contour>
    <contour>
      <point x="49" y="0" type="line"/>
      <point x="273" y="0" type="line"/>
      <point x="273" y="78" type="line"/>
      <point x="49" y="78" type="line"/>
    </contour>
  </outline>
</glyph>
<glyph name="uni07EB" format="2">
  <unicode hex="07EB"/>
  <outline>
    <contour>
      <point x="-191" y="812" type="line"/>
      <point x="191" y="812" type="line"/>
      <point x="191" y="883" type="line"/>
      <point x="-191" y="883" type="line"/>
    </contour>
  </outline>
</glyph>
<glyph name="uni07EC" format="2">
  <unicode hex="07EC"/>
  <outline>
    <contour>
      <point x="-176" y="800" type="line"/>
      <point x="-118" y="862"/>
      <point x="-94" y="884"/>
      <point x="-77" y="884" type="curve" smooth="yes"/>
      <point x="-63" y="884"/>
      <point x="-54" y="877"/>
      <point x="-45" y="870" type="curve" smooth="yes"/>
      <point x="6" y="829" type="line" smooth="yes"/>
      <point x="32" y="808"/>
      <point x="46" y="801"/>
      <point x="76" y="801" type="curve" smooth="yes"/>
      <point x="118" y="801"/>
      <point x="151" y="831"/>
      <point x="186" y="867" type="curve" smooth="yes"/>
      <point x="199" y="880"/>
      <point x="214" y="895"/>
      <point x="227" y="908" type="curve"/>
      <point x="176" y="958" type="line"/>
      <point x="118" y="896"/>
      <point x="94" y="874"/>
      <point x="77" y="874" type="curve" smooth="yes"/>
      <point x="64" y="874"/>
      <point x="55" y="881"/>
      <point x="46" y="888" type="curve" smooth="yes"/>
      <point x="-5" y="929" type="line" smooth="yes"/>
      <point x="-31" y="950"/>
      <point x="-45" y="957"/>
      <point x="-75" y="957" type="curve" smooth="yes"/>
      <point x="-114" y="957"/>
      <point x="-147" y="930"/>
      <point x="-177" y="899" type="curve" smooth="yes"/>
      <point x="-194" y="882"/>
      <point x="-211" y="865"/>
      <point x="-227" y="850" type="curve"/>
    </contour>
  </outline>
</glyph>
<glyph name="uni07ED" format="2">
  <unicode hex="07ED"/>
  <outline>
    <contour>
      <point x="0" y="804" type="curve" smooth="yes"/>
      <point x="30" y="804"/>
      <point x="56" y="822"/>
      <point x="56" y="864" type="curve" smooth="yes"/>
      <point x="56" y="906"/>
      <point x="30" y="924"/>
      <point x="0" y="924" type="curve" smooth="yes"/>
      <point x="-31" y="924"/>
      <point x="-56" y="906"/>
      <point x="-56" y="864" type="curve" smooth="yes"/>
      <point x="-56" y="822"/>
      <point x="-31" y="804"/>
    </contour>
  </outline>
</glyph>
<glyph name="uni07EE" format="2">
  <unicode hex="07EE"/>
  <outline>
    <contour>
      <point x="-169" y="800" type="line"/>
      <point x="-109" y="800" type="line"/>
      <point x="-74" y="833"/>
      <point x="-37" y="884"/>
      <point x="-2" y="946" type="curve"/>
      <point x="37" y="884"/>
      <point x="73" y="831"/>
      <point x="107" y="800" type="curve"/>
      <point x="169" y="800" type="line"/>
      <point x="169" y="811" type="line"/>
      <point x="130" y="873"/>
      <point x="69" y="972"/>
      <point x="44" y="1039" type="curve"/>
      <point x="-46" y="1039" type="line"/>
      <point x="-74" y="972"/>
      <point x="-127" y="874"/>
      <point x="-169" y="811" type="curve"/>
    </contour>
  </outline>
</glyph>
<glyph name="uni07EF" format="2">
  <unicode hex="07EF"/>
  <outline>
    <contour>
      <point x="-191" y="806" type="line"/>
      <point x="191" y="806" type="line"/>
      <point x="215" y="864" type="line"/>
      <point x="58" y="1059" type="line"/>
      <point x="5" y="1014" type="line"/>
      <point x="62" y="943" type="line" smooth="yes"/>
      <point x="78" y="923"/>
      <point x="102" y="895"/>
      <point x="119" y="877" type="curve"/>
      <point x="-191" y="877" type="line"/>
    </contour>
  </outline>
</glyph>
<glyph name="uni07F0" format="2">
  <unicode hex="07F0"/>
  <outline>
    <contour>
      <point x="176" y="800" type="curve"/>
      <point x="227" y="850" type="line"/>
      <point x="176" y="897"/>
      <point x="135" y="957"/>
      <point x="75" y="957" type="curve" smooth="yes"/>
      <point x="45" y="957"/>
      <point x="31" y="950"/>
      <point x="5" y="929" type="curve" smooth="yes"/>
      <point x="-46" y="888" type="line" smooth="yes"/>
      <point x="-55" y="881"/>
      <point x="-64" y="874"/>
      <point x="-77" y="874" type="curve" smooth="yes"/>
      <point x="-94" y="874"/>
      <point x="-118" y="896"/>
      <point x="-176" y="958" type="curve"/>
      <point x="-227" y="908" type="line"/>
      <point x="-176" y="861"/>
      <point x="-135" y="801"/>
      <point x="-76" y="801" type="curve" smooth="yes"/>
      <point x="-46" y="801"/>
      <point x="-32" y="808"/>
      <point x="-6" y="829" type="curve" smooth="yes"/>
      <point x="45" y="870" type="line" smooth="yes"/>
      <point x="54" y="877"/>
      <point x="63" y="884"/>
      <point x="77" y="884" type="curve" smooth="yes"/>
      <point x="94" y="884"/>
      <point x="118" y="862"/>
    </contour>
  </outline>
</glyph>
<glyph name="uni07F2" format="2">
  <unicode hex="07F2"/>
  <outline>
    <contour>
      <point x="0" y="-184" type="curve" smooth="yes"/>
      <point x="30" y="-184"/>
      <point x="56" y="-166"/>
      <point x="56" y="-124" type="curve" smooth="yes"/>
      <point x="56" y="-82"/>
      <point x="30" y="-64"/>
      <point x="0" y="-64" type="curve" smooth="yes"/>
      <point x="-31" y="-64"/>
      <point x="-56" y="-82"/>
      <point x="-56" y="-124" type="curve" smooth="yes"/>
      <point x="-56" y="-166"/>
      <point x="-31" y="-184"/>
    </contour>
  </outline>
</glyph>
<glyph name="uni07F3" format="2">
  <unicode hex="07F3"/>
  <outline>
    <contour>
      <point x="124" y="804" type="curve" smooth="yes"/>
      <point x="154" y="804"/>
      <point x="180" y="822"/>
      <point x="180" y="864" type="curve" smooth="yes"/>
      <point x="180" y="906"/>
      <point x="154" y="924"/>
      <point x="124" y="924" type="curve" smooth="yes"/>
      <point x="93" y="924"/>
      <point x="68" y="906"/>
      <point x="68" y="864" type="curve" smooth="yes"/>
      <point x="68" y="822"/>
      <point x="93" y="804"/>
    </contour>
    <contour>
      <point x="-123" y="804" type="curve" smooth="yes"/>
      <point x="-93" y="804"/>
      <point x="-67" y="822"/>
      <point x="-67" y="864" type="curve" smooth="yes"/>
      <point x="-67" y="906"/>
      <point x="-93" y="924"/>
      <point x="-123" y="924" type="curve" smooth="yes"/>
      <point x="-154" y="924"/>
      <point x="-179" y="906"/>
      <point x="-179" y="864" type="curve" smooth="yes"/>
      <point x="-179" y="822"/>
      <point x="-154" y="804"/>
    </contour>
  </outline>
</glyph>
<glyph name="uni07F4" format="2">
  <advance width="338"/>
  <unicode hex="07F4"/>
  <outline>
    <contour>
      <point x="193" y="669" type="curve" smooth="yes"/>
      <point x="134" y="669" type="line"/>
      <point x="122" y="568"/>
      <point x="110" y="467"/>
      <point x="98" y="366" type="curve"/>
      <point x="133" y="366" type="line"/>
      <point x="170" y="461"/>
      <point x="205" y="555"/>
      <point x="241" y="648" type="curve"/>
      <point x="231" y="661"/>
      <point x="213" y="669"/>
    </contour>
  </outline>
</glyph>
<glyph name="uni07F5" format="2">
  <advance width="338"/>
  <unicode hex="07F5"/>
  <outline>
    <contour>
      <point x="146" y="366" type="curve" smooth="yes"/>
      <point x="205" y="366" type="line"/>
      <point x="217" y="467"/>
      <point x="229" y="568"/>
      <point x="241" y="669" type="curve"/>
      <point x="206" y="669" type="line"/>
      <point x="169" y="574"/>
      <point x="133" y="480"/>
      <point x="98" y="387" type="curve"/>
      <point x="108" y="374"/>
      <point x="126" y="366"/>
    </contour>
  </outline>
</glyph>
<glyph name="uni07F6" format="2">
  <advance width="554"/>
  <unicode hex="07F6"/>
  <outline>
    <contour>
      <point x="39" y="0" type="line"/>
      <point x="504" y="0" type="line"/>
      <point x="504" y="78" type="line"/>
      <point x="200" y="78" type="line"/>
      <point x="271" y="140"/>
      <point x="342" y="202"/>
      <point x="402" y="280" type="curve" smooth="yes"/>
      <point x="460" y="355"/>
      <point x="504" y="438"/>
      <point x="504" y="531" type="curve" smooth="yes"/>
      <point x="504" y="639"/>
      <point x="442" y="714"/>
      <point x="307" y="714" type="curve" smooth="yes"/>
      <point x="177" y="714"/>
      <point x="97" y="640"/>
      <point x="97" y="538" type="curve" smooth="yes"/>
      <point x="97" y="424"/>
      <point x="180" y="362"/>
      <point x="305" y="362" type="curve" smooth="yes"/>
      <point x="322" y="362"/>
      <point x="344" y="366"/>
      <point x="356" y="370" type="curve"/>
      <point x="287" y="255"/>
      <point x="167" y="144"/>
      <point x="39" y="44" type="curve"/>
    </contour>
    <contour>
      <point x="303" y="438" type="curve" smooth="yes"/>
      <point x="221" y="438"/>
      <point x="187" y="484"/>
      <point x="187" y="538" type="curve" smooth="yes"/>
      <point x="187" y="591"/>
      <point x="226" y="636"/>
      <point x="300" y="636" type="curve" smooth="yes"/>
      <point x="375" y="636"/>
      <point x="414" y="595"/>
      <point x="414" y="542" type="curve" smooth="yes"/>
      <point x="414" y="486"/>
      <point x="384" y="438"/>
    </contour>
  </outline>
</glyph>
<glyph name="uni07F7" format="2">
  <advance width="950"/>
  <unicode hex="07F7"/>
  <outline>
    <contour>
      <point x="284" y="-42" type="curve" smooth="yes"/>
      <point x="361" y="-42"/>
      <point x="431" y="-16"/>
      <point x="473" y="41" type="curve"/>
      <point x="513" y="-16"/>
      <point x="581" y="-42"/>
      <point x="669" y="-42" type="curve" smooth="yes"/>
      <point x="816" y="-42"/>
      <point x="900" y="48"/>
      <point x="900" y="183" type="curve" smooth="yes"/>
      <point x="900" y="335"/>
      <point x="787" y="400"/>
      <point x="670" y="400" type="curve"/>
      <point x="692" y="425"/>
      <point x="710" y="468"/>
      <point x="710" y="519" type="curve" smooth="yes"/>
      <point x="710" y="653"/>
      <point x="623" y="735"/>
      <point x="470" y="735" type="curve" smooth="yes"/>
      <point x="354" y="735"/>
      <point x="236" y="666"/>
      <point x="236" y="525" type="curve" smooth="yes"/>
      <point x="236" y="459"/>
      <point x="258" y="422"/>
      <point x="278" y="400" type="curve"/>
      <point x="150" y="400"/>
      <point x="50" y="317"/>
      <point x="50" y="183" type="curve" smooth="yes"/>
      <point x="50" y="24"/>
      <point x="158" y="-42"/>
    </contour>
    <contour>
      <point x="286" y="113" type="curve" smooth="yes"/>
      <point x="320" y="113"/>
      <point x="349" y="133"/>
      <point x="349" y="181" type="curve" smooth="yes"/>
      <point x="349" y="230"/>
      <point x="320" y="248"/>
      <point x="286" y="248" type="curve" smooth="yes"/>
      <point x="252" y="248"/>
      <point x="225" y="230"/>
      <point x="225" y="181" type="curve" smooth="yes"/>
      <point x="225" y="133"/>
      <point x="252" y="113"/>
    </contour>
    <contour>
      <point x="285" y="32" type="curve" smooth="yes"/>
      <point x="203" y="32"/>
      <point x="138" y="76"/>
      <point x="138" y="182" type="curve" smooth="yes"/>
      <point x="138" y="289"/>
      <point x="203" y="329"/>
      <point x="285" y="329" type="curve" smooth="yes"/>
      <point x="304" y="329"/>
      <point x="330" y="328"/>
      <point x="356" y="316" type="curve"/>
      <point x="399" y="378" type="line"/>
      <point x="348" y="407"/>
      <point x="324" y="454"/>
      <point x="324" y="514" type="curve" smooth="yes"/>
      <point x="324" y="621"/>
      <point x="389" y="661"/>
      <point x="471" y="661" type="curve" smooth="yes"/>
      <point x="553" y="661"/>
      <point x="622" y="621"/>
      <point x="622" y="514" type="curve" smooth="yes"/>
      <point x="622" y="455"/>
      <point x="602" y="412"/>
      <point x="551" y="382" type="curve"/>
      <point x="596" y="319" type="line"/>
      <point x="615" y="326"/>
      <point x="637" y="329"/>
      <point x="661" y="329" type="curve" smooth="yes"/>
      <point x="743" y="329"/>
      <point x="812" y="289"/>
      <point x="812" y="182" type="curve" smooth="yes"/>
      <point x="812" y="76"/>
      <point x="743" y="32"/>
      <point x="661" y="32" type="curve" smooth="yes"/>
      <point x="581" y="32"/>
      <point x="514" y="74"/>
      <point x="514" y="185" type="curve"/>
      <point x="436" y="185" type="line"/>
      <point x="436" y="74"/>
      <point x="365" y="32"/>
    </contour>
    <contour>
      <point x="662" y="113" type="curve" smooth="yes"/>
      <point x="696" y="113"/>
      <point x="725" y="133"/>
      <point x="725" y="181" type="curve" smooth="yes"/>
      <point x="725" y="230"/>
      <point x="696" y="248"/>
      <point x="662" y="248" type="curve" smooth="yes"/>
      <point x="628" y="248"/>
      <point x="601" y="230"/>
      <point x="601" y="181" type="curve" smooth="yes"/>
      <point x="601" y="133"/>
      <point x="628" y="113"/>
    </contour>
    <contour>
      <point x="472" y="445" type="curve" smooth="yes"/>
      <point x="506" y="445"/>
      <point x="535" y="465"/>
      <point x="535" y="513" type="curve" smooth="yes"/>
      <point x="535" y="562"/>
      <point x="506" y="580"/>
      <point x="472" y="580" type="curve" smooth="yes"/>
      <point x="438" y="580"/>
      <point x="411" y="562"/>
      <point x="411" y="513" type="curve" smooth="yes"/>
      <point x="411" y="465"/>
      <point x="438" y="445"/>
    </contour>
  </outline>
</glyph>
<glyph name="uni07F8" format="2">
  <advance width="481"/>
  <unicode hex="07F8"/>
  <outline>
    <contour>
      <point x="50" y="0" type="line"/>
      <point x="431" y="0" type="line"/>
      <point x="431" y="78" type="line"/>
      <point x="50" y="78" type="line"/>
    </contour>
    <contour>
      <point x="239" y="359" type="curve" smooth="yes"/>
      <point x="273" y="359"/>
      <point x="302" y="379"/>
      <point x="302" y="427" type="curve" smooth="yes"/>
      <point x="302" y="476"/>
      <point x="273" y="494"/>
      <point x="239" y="494" type="curve" smooth="yes"/>
      <point x="205" y="494"/>
      <point x="178" y="476"/>
      <point x="178" y="427" type="curve" smooth="yes"/>
      <point x="178" y="379"/>
      <point x="205" y="359"/>
    </contour>
  </outline>
</glyph>
<glyph name="uni07F9" format="2">
  <advance width="481"/>
  <unicode hex="07F9"/>
  <outline>
    <contour>
      <point x="50" y="520" type="line"/>
      <point x="431" y="520" type="line"/>
      <point x="431" y="598" type="line"/>
      <point x="50" y="598" type="line"/>
    </contour>
    <contour>
      <point x="239" y="-10" type="curve" smooth="yes"/>
      <point x="273" y="-10"/>
      <point x="302" y="10"/>
      <point x="302" y="58" type="curve" smooth="yes"/>
      <point x="302" y="107"/>
      <point x="273" y="125"/>
      <point x="239" y="125" type="curve" smooth="yes"/>
      <point x="205" y="125"/>
      <point x="178" y="107"/>
      <point x="178" y="58" type="curve" smooth="yes"/>
      <point x="178" y="10"/>
      <point x="205" y="-10"/>
    </contour>
    <contour>
      <point x="239" y="238" type="curve" smooth="yes"/>
      <point x="273" y="238"/>
      <point x="302" y="258"/>
      <point x="302" y="306" type="curve" smooth="yes"/>
      <point x="302" y="355"/>
      <point x="273" y="373"/>
      <point x="239" y="373" type="curve" smooth="yes"/>
      <point x="205" y="373"/>
      <point x="178" y="355"/>
      <point x="178" y="306" type="curve" smooth="yes"/>
      <point x="178" y="258"/>
      <point x="205" y="238"/>
    </contour>
  </outline>
</glyph>
<glyph name="uni07FA" format="2">
  <advance width="417"/>
  <unicode hex="07FA"/>
  <outline>
    <contour>
      <point x="-34" y="0" type="line"/>
      <point x="451" y="0" type="line"/>
      <point x="451" y="78" type="line"/>
      <point x="-34" y="78" type="line"/>
    </contour>
  </outline>
</glyph>
<glyph name="uni07FD" format="2">
  <unicode hex="07FD"/>
  <outline>
    <contour>
      <point x="-200" y="78" type="line"/>
      <point x="-200" y="0" type="line"/>
      <point x="200" y="0" type="line"/>
      <point x="200" y="78" type="line"/>
    </contour>
    <contour>
      <point x="-200" y="-99" type="line"/>
      <point x="-136" y="-99" type="line"/>
      <point x="-111" y="43" type="line"/>
      <point x="-200" y="43" type="line"/>
    </contour>
    <contour>
      <point x="136" y="-99" type="line"/>
      <point x="200" y="-99" type="line"/>
      <point x="200" y="43" type="line"/>
      <point x="111" y="43" type="line"/>
    </contour>
  </outline>
</glyph>
<glyph name="uni07FE" format="2">
  <advance width="792"/>
  <unicode hex="07FE"/>
  <outline>
    <contour>
      <point x="88" y="514" type="line"/>
      <point x="704" y="514" type="line"/>
      <point x="704" y="811" type="line" smooth="yes"/>
      <point x="704" y="963"/>
      <point x="635" y="1034"/>
      <point x="520" y="1034" type="curve" smooth="yes"/>
      <point x="440" y="1034"/>
      <point x="385" y="987"/>
      <point x="364" y="920" type="curve"/>
      <point x="345" y="954"/>
      <point x="302" y="979"/>
      <point x="247" y="979" type="curve" smooth="yes"/>
      <point x="147" y="979"/>
      <point x="88" y="907"/>
      <point x="88" y="753" type="curve" smooth="yes"/>
    </contour>
    <contour>
      <point x="177" y="592" type="line"/>
      <point x="177" y="759" type="line" smooth="yes"/>
      <point x="177" y="840"/>
      <point x="190" y="901"/>
      <point x="254" y="901" type="curve" smooth="yes"/>
      <point x="313" y="901"/>
      <point x="331" y="849"/>
      <point x="331" y="766" type="curve" smooth="yes"/>
      <point x="331" y="592" type="line"/>
    </contour>
    <contour>
      <point x="420" y="592" type="line"/>
      <point x="420" y="815" type="line" smooth="yes"/>
      <point x="420" y="900"/>
      <point x="451" y="956"/>
      <point x="519" y="956" type="curve" smooth="yes"/>
      <point x="587" y="956"/>
      <point x="615" y="906"/>
      <point x="615" y="822" type="curve" smooth="yes"/>
      <point x="615" y="592" type="line"/>
    </contour>
    <contour>
      <point x="330" y="0" type="line"/>
      <point x="419" y="0" type="line"/>
      <point x="419" y="514" type="line"/>
      <point x="330" y="514" type="line"/>
    </contour>
    <contour>
      <point x="218" y="237" type="line"/>
      <point x="531" y="237" type="line"/>
      <point x="531" y="315" type="line"/>
      <point x="218" y="315" type="line"/>
    </contour>
  </outline>
</glyph>
<glyph name="uni07FF" format="2">
  <advance width="564"/>
  <unicode hex="07FF"/>
  <outline>
    <contour>
      <point x="88" y="0" type="line"/>
      <point x="270" y="0" type="line" smooth="yes"/>
      <point x="422" y="0"/>
      <point x="493" y="109"/>
      <point x="493" y="215" type="curve" smooth="yes"/>
      <point x="493" y="347"/>
      <point x="422" y="431"/>
      <point x="267" y="431" type="curve" smooth="yes"/>
      <point x="88" y="431" type="line"/>
      <point x="88" y="353" type="line"/>
      <point x="266" y="353" type="line" smooth="yes"/>
      <point x="354" y="353"/>
      <point x="402" y="301"/>
      <point x="402" y="215" type="curve" smooth="yes"/>
      <point x="402" y="150"/>
      <point x="371" y="78"/>
      <point x="273" y="78" type="curve" smooth="yes"/>
      <point x="88" y="78" type="line"/>
    </contour>
    <contour>
      <point x="88" y="0" type="line"/>
      <point x="177" y="0" type="line"/>
      <point x="177" y="714" type="line"/>
      <point x="88" y="714" type="line"/>
    </contour>
    <contour>
      <point x="39" y="528" type="line"/>
      <point x="352" y="528" type="line"/>
      <point x="352" y="606" type="line"/>
      <point x="39" y="606" type="line"/>
    </contour>
  </outline>
</glyph>
<glyph name="uni2E1C" format="2">
  <advance width="600"/>
  <unicode hex="2E1C"/>
  <note>
uni2E1C
</note>
  <outline>
    <contour>
      <point x="476" y="54" type="line"/>
      <point x="529" y="107" type="line"/>
      <point x="119" y="518" type="line"/>
      <point x="65" y="464" type="line"/>
    </contour>
  </outline>
</glyph>
<glyph name="uni2E1D" format="2">
  <advance width="600"/>
  <unicode hex="2E1D"/>
  <note>
uni2E1D
</note>
  <outline>
    <contour>
      <point x="128" y="54" type="line"/>
      <point x="539" y="464" type="line"/>
      <point x="485" y="518" type="line"/>
      <point x="75" y="107" type="line"/>
    </contour>
  </outline>
</glyph>
<glyph name="uniFD3E" format="2">
  <advance width="500"/>
  <unicode hex="FD3E"/>
  <note>
uniFD3E
</note>
  <outline>
    <contour>
      <point x="211" y="319" type="curve" smooth="yes"/>
      <point x="224" y="319"/>
      <point x="258" y="336"/>
      <point x="290" y="359" type="curve"/>
      <point x="300" y="377" type="line" smooth="yes"/>
      <point x="320" y="412"/>
      <point x="331" y="432"/>
      <point x="333" y="450" type="curve"/>
      <point x="357" y="644" type="line" smooth="yes"/>
      <point x="364" y="703"/>
      <point x="377" y="729"/>
      <point x="416" y="742" type="curve" smooth="yes"/>
      <point x="440" y="750" type="line"/>
      <point x="428" y="784" type="line"/>
      <point x="375" y="767" type="line" smooth="yes"/>
      <point x="294" y="741"/>
      <point x="275" y="682"/>
      <point x="273" y="583" type="curve" smooth="yes"/>
      <point x="273" y="565"/>
      <point x="273" y="476"/>
      <point x="273" y="459" type="curve" smooth="yes"/>
      <point x="272" y="409" type="line"/>
      <point x="235" y="388"/>
      <point x="215" y="379"/>
      <point x="157" y="366" type="curve"/>
      <point x="171" y="335"/>
      <point x="189" y="319"/>
    </contour>
    <contour>
      <point x="428" y="-151" type="curve"/>
      <point x="438" y="-142"/>
      <point x="448" y="-131"/>
      <point x="458" y="-118" type="curve"/>
      <point x="428" y="-88" type="line"/>
      <point x="412" y="-105"/>
      <point x="401" y="-116"/>
      <point x="396" y="-121" type="curve"/>
      <point x="404" y="-131"/>
      <point x="415" y="-141"/>
    </contour>
    <contour>
      <point x="80" y="293" type="curve"/>
      <point x="107" y="319"/>
      <point x="129" y="344"/>
      <point x="145" y="366" type="curve"/>
      <point x="121" y="387"/>
      <point x="98" y="409"/>
      <point x="78" y="432" type="curve"/>
      <point x="57" y="408"/>
      <point x="34" y="383"/>
      <point x="8" y="358" type="curve"/>
      <point x="27" y="337"/>
      <point x="51" y="315"/>
    </contour>
    <contour>
      <point x="428" y="-75" type="line"/>
      <point x="440" y="-41" type="line"/>
      <point x="416" y="-33" type="line" smooth="yes"/>
      <point x="380" y="-21"/>
      <point x="364" y="3"/>
      <point x="357" y="65" type="curve" smooth="yes"/>
      <point x="338" y="232"/>
      <point x="332" y="264"/>
      <point x="295" y="328" type="curve"/>
      <point x="264" y="309" type="line"/>
      <point x="267" y="290"/>
      <point x="270" y="261"/>
      <point x="271" y="222" type="curve" smooth="yes"/>
      <point x="272" y="148"/>
      <point x="276" y="95"/>
      <point x="280" y="61" type="curve" smooth="yes"/>
      <point x="287" y="0"/>
      <point x="318" y="-38"/>
      <point x="375" y="-57" type="curve" smooth="yes"/>
    </contour>
    <contour>
      <point x="428" y="797" type="curve"/>
      <point x="438" y="806"/>
      <point x="448" y="817"/>
      <point x="458" y="830" type="curve"/>
      <point x="428" y="860" type="line"/>
      <point x="412" y="843"/>
      <point x="401" y="832"/>
      <point x="396" y="827" type="curve"/>
      <point x="402" y="819"/>
      <point x="415" y="808"/>
    </contour>
  </outline>
</glyph>
<glyph name="uniFD3F" format="2">
  <advance width="500"/>
  <unicode hex="FD3F"/>
  <note>
uniFD3F
</note>
  <outline>
    <contour>
      <point x="72" y="-76" type="line"/>
      <point x="125" y="-58" type="line" smooth="yes"/>
      <point x="212" y="-30"/>
      <point x="227" y="29"/>
      <point x="228" y="141" type="curve" smooth="yes"/>
      <point x="228" y="177"/>
      <point x="228" y="222"/>
      <point x="228" y="268" type="curve" smooth="yes"/>
      <point x="228" y="299" type="line"/>
      <point x="270" y="322"/>
      <point x="287" y="329"/>
      <point x="343" y="342" type="curve"/>
      <point x="330" y="373"/>
      <point x="312" y="389"/>
      <point x="290" y="389" type="curve" smooth="yes"/>
      <point x="276" y="389"/>
      <point x="239" y="370"/>
      <point x="211" y="349" type="curve"/>
      <point x="201" y="331" type="line" smooth="yes"/>
      <point x="182" y="298"/>
      <point x="171" y="278"/>
      <point x="169" y="265" type="curve"/>
      <point x="144" y="64" type="line" smooth="yes"/>
      <point x="136" y="2"/>
      <point x="120" y="-22"/>
      <point x="84" y="-34" type="curve" smooth="yes"/>
      <point x="60" y="-42" type="line"/>
    </contour>
    <contour>
      <point x="72" y="-151" type="line"/>
      <point x="104" y="-118" type="line"/>
      <point x="95" y="-108"/>
      <point x="84" y="-98"/>
      <point x="72" y="-89" type="curve"/>
      <point x="59" y="-102"/>
      <point x="49" y="-113"/>
      <point x="42" y="-122" type="curve"/>
    </contour>
    <contour>
      <point x="206" y="380" type="curve"/>
      <point x="237" y="399" type="line"/>
      <point x="233" y="418"/>
      <point x="230" y="447"/>
      <point x="229" y="487" type="curve" smooth="yes"/>
      <point x="226" y="630"/>
      <point x="241" y="727"/>
      <point x="125" y="766" type="curve" smooth="yes"/>
      <point x="72" y="784" type="line"/>
      <point x="60" y="750" type="line"/>
      <point x="85" y="741" type="line" smooth="yes"/>
      <point x="121" y="728"/>
      <point x="137" y="704"/>
      <point x="144" y="643" type="curve" smooth="yes"/>
      <point x="154" y="557" type="line" smooth="yes"/>
      <point x="163" y="476"/>
      <point x="179" y="427"/>
    </contour>
    <contour>
      <point x="422" y="277" type="curve"/>
      <point x="443" y="301"/>
      <point x="466" y="325"/>
      <point x="492" y="350" type="curve"/>
      <point x="472" y="372"/>
      <point x="448" y="394"/>
      <point x="421" y="416" type="curve"/>
      <point x="394" y="391"/>
      <point x="373" y="366"/>
      <point x="356" y="342" type="curve"/>
      <point x="380" y="321"/>
      <point x="402" y="299"/>
    </contour>
    <contour>
      <point x="72" y="796" type="curve"/>
      <point x="104" y="829" type="line"/>
      <point x="96" y="839"/>
      <point x="85" y="849"/>
      <point x="72" y="859" type="curve"/>
      <point x="59" y="846"/>
      <point x="49" y="835"/>
      <point x="42" y="826" type="curve"/>
      <point x="53" y="816"/>
      <point x="62" y="807"/>
    </contour>
  </outline>
</glyph>
<glyph name="uni07CA.fina" format="2">
  <advance width="265"/>
  <outline>
    <contour>
      <point x="88" y="0" type="line"/>
      <point x="177" y="0" type="line"/>
      <point x="177" y="714" type="line"/>
      <point x="88" y="714" type="line"/>
    </contour>
    <contour>
      <point x="139" y="0" type="line"/>
      <point x="299" y="0" type="line"/>
      <point x="299" y="78" type="line"/>
      <point x="139" y="78" type="line"/>
    </contour>
  </outline>
</glyph>
<glyph name="uni07CA.medi" format="2">
  <advance width="265"/>
  <outline>
    <contour>
      <point x="88" y="15" type="line"/>
      <point x="177" y="78" type="line"/>
      <point x="177" y="714" type="line"/>
      <point x="88" y="714" type="line"/>
    </contour>
    <contour>
      <point x="15" y="0" type="curve" smooth="yes"/>
      <point x="55" y="0" type="line" smooth="yes"/>
      <point x="124" y="0"/>
      <point x="177" y="36"/>
      <point x="177" y="117" type="curve"/>
      <point x="171" y="117" type="line"/>
      <point x="156" y="98"/>
      <point x="142" y="78"/>
      <point x="100" y="78" type="curve" smooth="yes"/>
      <point x="-34" y="78" type="line"/>
      <point x="-34" y="16" type="line"/>
      <point x="-23" y="8"/>
      <point x="3" y="0"/>
    </contour>
    <contour>
      <point x="265" y="0" type="curve" smooth="yes"/>
      <point x="299" y="0" type="line"/>
      <point x="299" y="78" type="line"/>
      <point x="280" y="78" type="line" smooth="yes"/>
      <point x="229" y="78"/>
      <point x="194" y="97"/>
      <point x="177" y="135" type="curve"/>
      <point x="159" y="62" type="line"/>
      <point x="190" y="21"/>
      <point x="212" y="0"/>
    </contour>
  </outline>
</glyph>
<glyph name="uni07CB.fina" format="2">
  <advance width="660"/>
  <outline>
    <contour>
      <point x="329" y="0" type="curve" smooth="yes"/>
      <point x="481" y="0"/>
      <point x="591" y="113"/>
      <point x="591" y="275" type="curve" smooth="yes"/>
      <point x="591" y="420"/>
      <point x="492" y="534"/>
      <point x="332" y="534" type="curve" smooth="yes"/>
      <point x="186" y="534"/>
      <point x="69" y="425"/>
      <point x="69" y="268" type="curve" smooth="yes"/>
      <point x="69" y="103"/>
      <point x="175" y="0"/>
    </contour>
    <contour>
      <point x="331" y="78" type="curve" smooth="yes"/>
      <point x="209" y="78"/>
      <point x="160" y="174"/>
      <point x="160" y="263" type="curve" smooth="yes"/>
      <point x="160" y="379"/>
      <point x="231" y="457"/>
      <point x="330" y="457" type="curve" smooth="yes"/>
      <point x="438" y="457"/>
      <point x="500" y="379"/>
      <point x="500" y="269" type="curve" smooth="yes"/>
      <point x="500" y="163"/>
      <point x="436" y="78"/>
    </contour>
    <contour>
      <point x="625" y="0" type="curve" smooth="yes"/>
      <point x="694" y="0" type="line"/>
      <point x="694" y="78" type="line"/>
      <point x="621" y="78" type="line" smooth="yes"/>
      <point x="570" y="78"/>
      <point x="535" y="97"/>
      <point x="518" y="135" type="curve"/>
      <point x="500" y="63" type="line"/>
      <point x="537" y="21"/>
      <point x="562" y="0"/>
    </contour>
  </outline>
</glyph>
<glyph name="uni07CC.medi" format="2">
  <advance width="437"/>
  <outline>
    <contour>
      <point x="174" y="350" type="line"/>
      <point x="263" y="350" type="line"/>
      <point x="433" y="714" type="line"/>
      <point x="345" y="714" type="line"/>
      <point x="257" y="524" type="line" smooth="yes"/>
      <point x="244" y="496"/>
      <point x="229" y="461"/>
      <point x="218" y="431" type="curve"/>
      <point x="207" y="461"/>
      <point x="191" y="498"/>
      <point x="178" y="527" type="curve" smooth="yes"/>
      <point x="92" y="714" type="line"/>
      <point x="4" y="714" type="line"/>
    </contour>
    <contour>
      <point x="15" y="0" type="curve" smooth="yes"/>
      <point x="141" y="0" type="line" smooth="yes"/>
      <point x="210" y="0"/>
      <point x="263" y="36"/>
      <point x="263" y="117" type="curve"/>
      <point x="257" y="117" type="line"/>
      <point x="242" y="98"/>
      <point x="228" y="78"/>
      <point x="186" y="78" type="curve" smooth="yes"/>
      <point x="-34" y="78" type="line"/>
      <point x="-34" y="16" type="line"/>
      <point x="-23" y="8"/>
      <point x="3" y="0"/>
    </contour>
    <contour>
      <point x="370" y="0" type="curve" smooth="yes"/>
      <point x="471" y="0" type="line"/>
      <point x="471" y="78" type="line"/>
      <point x="366" y="78" type="line" smooth="yes"/>
      <point x="315" y="78"/>
      <point x="280" y="97"/>
      <point x="263" y="135" type="curve"/>
      <point x="245" y="63" type="line"/>
      <point x="282" y="21"/>
      <point x="307" y="0"/>
    </contour>
    <contour>
      <point x="174" y="62" type="line"/>
      <point x="263" y="62" type="line"/>
      <point x="263" y="414" type="line"/>
      <point x="174" y="414" type="line"/>
    </contour>
  </outline>
</glyph>
<glyph name="uni07CD.fina" format="2">
  <advance width="619"/>
  <outline>
    <contour>
      <point x="31" y="0" type="line"/>
      <point x="127" y="0" type="line"/>
      <point x="245" y="263" type="line" smooth="yes"/>
      <point x="269" y="316"/>
      <point x="289" y="366"/>
      <point x="309" y="423" type="curve"/>
      <point x="328" y="369"/>
      <point x="347" y="320"/>
      <point x="370" y="269" type="curve" smooth="yes"/>
      <point x="492" y="0" type="line"/>
      <point x="588" y="0" type="line"/>
      <point x="354" y="513" type="line"/>
      <point x="265" y="513" type="line"/>
    </contour>
    <contour>
      <point x="523" y="0" type="line"/>
      <point x="653" y="0" type="line"/>
      <point x="653" y="78" type="line"/>
      <point x="523" y="78" type="line"/>
    </contour>
  </outline>
</glyph>
<glyph name="uni07CD.init" format="2">
  <advance width="619"/>
  <outline>
    <contour>
      <point x="31" y="0" type="line"/>
      <point x="127" y="0" type="line"/>
      <point x="245" y="263" type="line" smooth="yes"/>
      <point x="269" y="316"/>
      <point x="289" y="366"/>
      <point x="309" y="423" type="curve"/>
      <point x="328" y="369"/>
      <point x="347" y="320"/>
      <point x="370" y="269" type="curve" smooth="yes"/>
      <point x="492" y="0" type="line"/>
      <point x="588" y="0" type="line"/>
      <point x="354" y="513" type="line"/>
      <point x="265" y="513" type="line"/>
    </contour>
    <contour>
      <point x="15" y="0" type="curve" smooth="yes"/>
      <point x="96" y="0" type="line"/>
      <point x="96" y="78" type="line"/>
      <point x="-34" y="78" type="line"/>
      <point x="-34" y="16" type="line"/>
      <point x="-23" y="8"/>
      <point x="3" y="0"/>
    </contour>
  </outline>
</glyph>
<glyph name="uni07CE.fina" format="2">
  <advance width="592"/>
  <outline>
    <contour>
      <point x="88" y="0" type="line"/>
      <point x="177" y="0" type="line"/>
      <point x="177" y="513" type="line"/>
      <point x="88" y="513" type="line"/>
    </contour>
    <contour>
      <point x="159" y="0" type="line"/>
      <point x="382" y="0" type="line" smooth="yes"/>
      <point x="451" y="0"/>
      <point x="504" y="36"/>
      <point x="504" y="117" type="curve"/>
      <point x="498" y="117" type="line"/>
      <point x="483" y="98"/>
      <point x="469" y="78"/>
      <point x="427" y="78" type="curve" smooth="yes"/>
      <point x="159" y="78" type="line"/>
    </contour>
    <contour>
      <point x="592" y="0" type="curve" smooth="yes"/>
      <point x="626" y="0" type="line"/>
      <point x="626" y="78" type="line"/>
      <point x="607" y="78" type="line" smooth="yes"/>
      <point x="556" y="78"/>
      <point x="521" y="97"/>
      <point x="504" y="135" type="curve"/>
      <point x="486" y="62" type="line"/>
      <point x="517" y="21"/>
      <point x="539" y="0"/>
    </contour>
    <contour>
      <point x="416" y="66" type="line"/>
      <point x="505" y="68" type="line"/>
      <point x="505" y="513" type="line"/>
      <point x="416" y="513" type="line"/>
    </contour>
  </outline>
</glyph>
<glyph name="uni07CE.medi" format="2">
  <advance width="592"/>
  <outline>
    <contour>
      <point x="88" y="65" type="line"/>
      <point x="177" y="65" type="line"/>
      <point x="177" y="513" type="line"/>
      <point x="88" y="513" type="line"/>
    </contour>
    <contour>
      <point x="15" y="0" type="curve" smooth="yes"/>
      <point x="55" y="0" type="line" smooth="yes"/>
      <point x="124" y="0"/>
      <point x="177" y="36"/>
      <point x="177" y="117" type="curve"/>
      <point x="171" y="117" type="line"/>
      <point x="156" y="98"/>
      <point x="142" y="78"/>
      <point x="100" y="78" type="curve" smooth="yes"/>
      <point x="-34" y="78" type="line"/>
      <point x="-34" y="16" type="line"/>
      <point x="-23" y="8"/>
      <point x="3" y="0"/>
    </contour>
    <contour>
      <point x="265" y="0" type="curve" smooth="yes"/>
      <point x="299" y="0" type="line"/>
      <point x="299" y="78" type="line"/>
      <point x="280" y="78" type="line" smooth="yes"/>
      <point x="229" y="78"/>
      <point x="194" y="97"/>
      <point x="177" y="135" type="curve"/>
      <point x="159" y="62" type="line"/>
      <point x="190" y="21"/>
      <point x="212" y="0"/>
    </contour>
    <contour>
      <point x="290" y="0" type="line"/>
      <point x="382" y="0" type="line" smooth="yes"/>
      <point x="451" y="0"/>
      <point x="504" y="36"/>
      <point x="504" y="117" type="curve"/>
      <point x="498" y="117" type="line"/>
      <point x="483" y="98"/>
      <point x="469" y="78"/>
      <point x="427" y="78" type="curve" smooth="yes"/>
      <point x="290" y="78" type="line"/>
    </contour>
    <contour>
      <point x="592" y="0" type="curve" smooth="yes"/>
      <point x="626" y="0" type="line"/>
      <point x="626" y="78" type="line"/>
      <point x="607" y="78" type="line" smooth="yes"/>
      <point x="556" y="78"/>
      <point x="521" y="97"/>
      <point x="504" y="135" type="curve"/>
      <point x="486" y="62" type="line"/>
      <point x="517" y="21"/>
      <point x="539" y="0"/>
    </contour>
    <contour>
      <point x="416" y="66" type="line"/>
      <point x="505" y="68" type="line"/>
      <point x="505" y="513" type="line"/>
      <point x="416" y="513" type="line"/>
    </contour>
  </outline>
</glyph>
<glyph name="uni07CF.fina" format="2">
  <advance width="551"/>
  <outline>
    <contour>
      <point x="49" y="0" type="line"/>
      <point x="341" y="0" type="line" smooth="yes"/>
      <point x="410" y="0"/>
      <point x="463" y="36"/>
      <point x="463" y="117" type="curve"/>
      <point x="457" y="117" type="line"/>
      <point x="442" y="98"/>
      <point x="428" y="78"/>
      <point x="386" y="78" type="curve" smooth="yes"/>
      <point x="49" y="78" type="line"/>
    </contour>
    <contour>
      <point x="551" y="0" type="curve" smooth="yes"/>
      <point x="585" y="0" type="line"/>
      <point x="585" y="78" type="line"/>
      <point x="566" y="78" type="line" smooth="yes"/>
      <point x="515" y="78"/>
      <point x="480" y="97"/>
      <point x="463" y="135" type="curve"/>
      <point x="445" y="62" type="line"/>
      <point x="476" y="21"/>
      <point x="498" y="0"/>
    </contour>
    <contour>
      <point x="374" y="31" type="line"/>
      <point x="463" y="78" type="line"/>
      <point x="463" y="500" type="line"/>
      <point x="374" y="500" type="line"/>
    </contour>
    <contour>
      <point x="49" y="435" type="line"/>
      <point x="463" y="435" type="line"/>
      <point x="463" y="513" type="line"/>
      <point x="49" y="513" type="line"/>
    </contour>
  </outline>
</glyph>
<glyph name="uni07CF.init" format="2">
  <advance width="551"/>
  <outline>
    <contour>
      <point x="15" y="0" type="curve" smooth="yes"/>
      <point x="341" y="0" type="line" smooth="yes"/>
      <point x="410" y="0"/>
      <point x="463" y="36"/>
      <point x="463" y="117" type="curve"/>
      <point x="457" y="117" type="line"/>
      <point x="442" y="98"/>
      <point x="428" y="78"/>
      <point x="386" y="78" type="curve" smooth="yes"/>
      <point x="-34" y="78" type="line"/>
      <point x="-34" y="16" type="line"/>
      <point x="-23" y="8"/>
      <point x="3" y="0"/>
    </contour>
    <contour>
      <point x="374" y="23" type="line"/>
      <point x="463" y="116" type="line"/>
      <point x="463" y="500" type="line"/>
      <point x="374" y="500" type="line"/>
    </contour>
    <contour>
      <point x="49" y="435" type="line"/>
      <point x="463" y="435" type="line"/>
      <point x="463" y="513" type="line"/>
      <point x="49" y="513" type="line"/>
    </contour>
  </outline>
</glyph>
<glyph name="uni07D0.init" format="2">
  <advance width="645"/>
  <outline>
    <contour>
      <point x="327" y="303" type="curve" smooth="yes"/>
      <point x="500" y="303"/>
      <point x="583" y="394"/>
      <point x="583" y="507" type="curve" smooth="yes"/>
      <point x="583" y="623"/>
      <point x="502" y="714"/>
      <point x="324" y="714" type="curve" smooth="yes"/>
      <point x="147" y="714"/>
      <point x="62" y="623"/>
      <point x="62" y="507" type="curve" smooth="yes"/>
      <point x="62" y="391"/>
      <point x="147" y="303"/>
    </contour>
    <contour>
      <point x="15" y="0" type="curve" smooth="yes"/>
      <point x="245" y="0" type="line" smooth="yes"/>
      <point x="314" y="0"/>
      <point x="367" y="36"/>
      <point x="367" y="117" type="curve"/>
      <point x="361" y="117" type="line"/>
      <point x="346" y="98"/>
      <point x="332" y="78"/>
      <point x="290" y="78" type="curve" smooth="yes"/>
      <point x="-34" y="78" type="line"/>
      <point x="-34" y="16" type="line"/>
      <point x="-23" y="8"/>
      <point x="3" y="0"/>
    </contour>
    <contour>
      <point x="278" y="28" type="line"/>
      <point x="367" y="117" type="line"/>
      <point x="367" y="362" type="line"/>
      <point x="278" y="362" type="line"/>
    </contour>
    <contour>
      <point x="327" y="381" type="curve" smooth="yes"/>
      <point x="201" y="381"/>
      <point x="151" y="441"/>
      <point x="151" y="508" type="curve" smooth="yes"/>
      <point x="151" y="586"/>
      <point x="217" y="636"/>
      <point x="323" y="636" type="curve" smooth="yes"/>
      <point x="429" y="636"/>
      <point x="494" y="586"/>
      <point x="494" y="507" type="curve" smooth="yes"/>
      <point x="494" y="433"/>
      <point x="429" y="381"/>
    </contour>
  </outline>
</glyph>
<glyph name="uni07D1.medi" format="2">
  <advance width="522"/>
  <outline>
    <contour>
      <point x="15" y="0" type="curve" smooth="yes"/>
      <point x="554" y="0" type="line"/>
      <point x="554" y="78" type="line"/>
      <point x="-34" y="78" type="line"/>
      <point x="-34" y="16" type="line"/>
      <point x="-23" y="8"/>
      <point x="3" y="0"/>
    </contour>
    <contour>
      <point x="210" y="366" type="line"/>
      <point x="304" y="366" type="line"/>
      <point x="314" y="453"/>
      <point x="335" y="576"/>
      <point x="354" y="669" type="curve"/>
      <point x="289" y="669" type="line"/>
      <point x="257" y="580"/>
      <point x="221" y="464"/>
      <point x="203" y="377" type="curve"/>
    </contour>
  </outline>
</glyph>
<glyph name="uni07D2.medi" format="2">
  <advance width="685"/>
  <outline>
    <contour>
      <point x="299" y="244" type="line"/>
      <point x="388" y="244" type="line"/>
      <point x="388" y="535" type="line" smooth="yes"/>
      <point x="388" y="647"/>
      <point x="326" y="714"/>
      <point x="220" y="714" type="curve" smooth="yes"/>
      <point x="109" y="714"/>
      <point x="46" y="642"/>
      <point x="46" y="550" type="curve" smooth="yes"/>
      <point x="46" y="435"/>
      <point x="122" y="377"/>
      <point x="235" y="377" type="curve" smooth="yes"/>
      <point x="590" y="377" type="line"/>
      <point x="590" y="455" type="line"/>
      <point x="241" y="455" type="line" smooth="yes"/>
      <point x="172" y="455"/>
      <point x="135" y="491"/>
      <point x="135" y="548" type="curve" smooth="yes"/>
      <point x="135" y="593"/>
      <point x="158" y="636"/>
      <point x="217" y="636" type="curve" smooth="yes"/>
      <point x="278" y="636"/>
      <point x="299" y="591"/>
      <point x="299" y="544" type="curve" smooth="yes"/>
    </contour>
    <contour>
      <point x="15" y="0" type="curve" smooth="yes"/>
      <point x="475" y="0" type="line" smooth="yes"/>
      <point x="544" y="0"/>
      <point x="597" y="36"/>
      <point x="597" y="117" type="curve"/>
      <point x="591" y="117" type="line"/>
      <point x="576" y="98"/>
      <point x="562" y="78"/>
      <point x="520" y="78" type="curve" smooth="yes"/>
      <point x="-34" y="78" type="line"/>
      <point x="-34" y="16" type="line"/>
      <point x="-23" y="8"/>
      <point x="3" y="0"/>
    </contour>
    <contour>
      <point x="685" y="0" type="curve" smooth="yes"/>
      <point x="719" y="0" type="line"/>
      <point x="719" y="78" type="line"/>
      <point x="700" y="78" type="line" smooth="yes"/>
      <point x="649" y="78"/>
      <point x="614" y="97"/>
      <point x="597" y="135" type="curve"/>
      <point x="579" y="62" type="line"/>
      <point x="610" y="21"/>
      <point x="632" y="0"/>
    </contour>
    <contour>
      <point x="508" y="9" type="line"/>
      <point x="597" y="117" type="line"/>
      <point x="597" y="455" type="line"/>
      <point x="508" y="455" type="line"/>
    </contour>
  </outline>
</glyph>
<glyph name="uni07D3.fina" format="2">
  <advance width="419"/>
  <outline>
    <contour>
      <point x="88" y="0" type="line"/>
      <point x="177" y="0" type="line"/>
      <point x="177" y="714" type="line"/>
      <point x="88" y="714" type="line"/>
    </contour>
    <contour>
      <point x="124" y="0" type="line"/>
      <point x="453" y="0" type="line"/>
      <point x="453" y="78" type="line"/>
      <point x="124" y="78" type="line"/>
    </contour>
    <contour>
      <point x="104" y="352" type="line"/>
      <point x="351" y="352" type="line"/>
      <point x="351" y="430" type="line"/>
      <point x="104" y="430" type="line"/>
    </contour>
    <contour>
      <point x="104" y="636" type="line"/>
      <point x="351" y="636" type="line"/>
      <point x="351" y="714" type="line"/>
      <point x="104" y="714" type="line"/>
    </contour>
  </outline>
</glyph>
<glyph name="uni07D3.init" format="2">
  <advance width="419"/>
  <outline>
    <contour>
      <point x="88" y="26" type="line"/>
      <point x="177" y="117" type="line"/>
      <point x="177" y="714" type="line"/>
      <point x="88" y="714" type="line"/>
    </contour>
    <contour>
      <point x="15" y="0" type="curve" smooth="yes"/>
      <point x="55" y="0" type="line" smooth="yes"/>
      <point x="124" y="0"/>
      <point x="177" y="36"/>
      <point x="177" y="117" type="curve"/>
      <point x="171" y="117" type="line"/>
      <point x="156" y="98"/>
      <point x="142" y="78"/>
      <point x="100" y="78" type="curve" smooth="yes"/>
      <point x="-34" y="78" type="line"/>
      <point x="-34" y="16" type="line"/>
      <point x="-23" y="8"/>
      <point x="3" y="0"/>
    </contour>
    <contour>
      <point x="104" y="352" type="line"/>
      <point x="351" y="352" type="line"/>
      <point x="351" y="430" type="line"/>
      <point x="104" y="430" type="line"/>
    </contour>
    <contour>
      <point x="104" y="636" type="line"/>
      <point x="351" y="636" type="line"/>
      <point x="351" y="714" type="line"/>
      <point x="104" y="714" type="line"/>
    </contour>
  </outline>
</glyph>
<glyph name="uni07D3.medi" format="2">
  <advance width="419"/>
  <outline>
    <contour>
      <point x="88" y="31" type="line"/>
      <point x="177" y="63" type="line"/>
      <point x="177" y="714" type="line"/>
      <point x="88" y="714" type="line"/>
    </contour>
    <contour>
      <point x="15" y="0" type="curve" smooth="yes"/>
      <point x="55" y="0" type="line" smooth="yes"/>
      <point x="124" y="0"/>
      <point x="177" y="36"/>
      <point x="177" y="117" type="curve"/>
      <point x="171" y="117" type="line"/>
      <point x="156" y="98"/>
      <point x="142" y="78"/>
      <point x="100" y="78" type="curve" smooth="yes"/>
      <point x="-34" y="78" type="line"/>
      <point x="-34" y="16" type="line"/>
      <point x="-23" y="8"/>
      <point x="3" y="0"/>
    </contour>
    <contour>
      <point x="284" y="0" type="curve" smooth="yes"/>
      <point x="453" y="0" type="line"/>
      <point x="453" y="78" type="line"/>
      <point x="280" y="78" type="line" smooth="yes"/>
      <point x="229" y="78"/>
      <point x="194" y="97"/>
      <point x="177" y="135" type="curve"/>
      <point x="159" y="63" type="line"/>
      <point x="196" y="21"/>
      <point x="221" y="0"/>
    </contour>
    <contour>
      <point x="104" y="352" type="line"/>
      <point x="351" y="352" type="line"/>
      <point x="351" y="430" type="line"/>
      <point x="104" y="430" type="line"/>
    </contour>
    <contour>
      <point x="104" y="636" type="line"/>
      <point x="351" y="636" type="line"/>
      <point x="351" y="714" type="line"/>
      <point x="104" y="714" type="line"/>
    </contour>
  </outline>
</glyph>
<glyph name="uni07D4.init" format="2">
  <advance width="419"/>
  <outline>
    <contour>
      <point x="242" y="7" type="line"/>
      <point x="331" y="117" type="line"/>
      <point x="331" y="714" type="line"/>
      <point x="242" y="714" type="line"/>
    </contour>
    <contour>
      <point x="15" y="0" type="curve" smooth="yes"/>
      <point x="209" y="0" type="line" smooth="yes"/>
      <point x="278" y="0"/>
      <point x="331" y="36"/>
      <point x="331" y="117" type="curve"/>
      <point x="325" y="117" type="line"/>
      <point x="310" y="98"/>
      <point x="296" y="78"/>
      <point x="254" y="78" type="curve" smooth="yes"/>
      <point x="-34" y="78" type="line"/>
      <point x="-34" y="16" type="line"/>
      <point x="-23" y="8"/>
      <point x="3" y="0"/>
    </contour>
    <contour>
      <point x="68" y="352" type="line"/>
      <point x="315" y="352" type="line"/>
      <point x="315" y="430" type="line"/>
      <point x="68" y="430" type="line"/>
    </contour>
    <contour>
      <point x="68" y="636" type="line"/>
      <point x="315" y="636" type="line"/>
      <point x="315" y="714" type="line"/>
      <point x="68" y="714" type="line"/>
    </contour>
  </outline>
</glyph>
<glyph name="uni07D4.medi" format="2">
  <advance width="419"/>
  <outline>
    <contour>
      <point x="242" y="7" type="line"/>
      <point x="331" y="117" type="line"/>
      <point x="331" y="714" type="line"/>
      <point x="242" y="714" type="line"/>
    </contour>
    <contour>
      <point x="15" y="0" type="curve" smooth="yes"/>
      <point x="209" y="0" type="line" smooth="yes"/>
      <point x="278" y="0"/>
      <point x="331" y="36"/>
      <point x="331" y="117" type="curve"/>
      <point x="325" y="117" type="line"/>
      <point x="310" y="98"/>
      <point x="296" y="78"/>
      <point x="254" y="78" type="curve" smooth="yes"/>
      <point x="-34" y="78" type="line"/>
      <point x="-34" y="16" type="line"/>
      <point x="-23" y="8"/>
      <point x="3" y="0"/>
    </contour>
    <contour>
      <point x="419" y="0" type="curve" smooth="yes"/>
      <point x="453" y="0" type="line"/>
      <point x="453" y="78" type="line"/>
      <point x="434" y="78" type="line" smooth="yes"/>
      <point x="383" y="78"/>
      <point x="348" y="97"/>
      <point x="331" y="135" type="curve"/>
      <point x="313" y="62" type="line"/>
      <point x="344" y="21"/>
      <point x="366" y="0"/>
    </contour>
    <contour>
      <point x="68" y="352" type="line"/>
      <point x="315" y="352" type="line"/>
      <point x="315" y="430" type="line"/>
      <point x="68" y="430" type="line"/>
    </contour>
    <contour>
      <point x="68" y="636" type="line"/>
      <point x="315" y="636" type="line"/>
      <point x="315" y="714" type="line"/>
      <point x="68" y="714" type="line"/>
    </contour>
  </outline>
</glyph>
<glyph name="uni07D5.fina" format="2">
  <advance width="564"/>
  <outline>
    <contour>
      <point x="88" y="0" type="line"/>
      <point x="270" y="0" type="line" smooth="yes"/>
      <point x="422" y="0"/>
      <point x="493" y="109"/>
      <point x="493" y="215" type="curve" smooth="yes"/>
      <point x="493" y="347"/>
      <point x="422" y="431"/>
      <point x="267" y="431" type="curve" smooth="yes"/>
      <point x="88" y="431" type="line"/>
      <point x="88" y="353" type="line"/>
      <point x="266" y="353" type="line" smooth="yes"/>
      <point x="354" y="353"/>
      <point x="402" y="301"/>
      <point x="402" y="215" type="curve" smooth="yes"/>
      <point x="402" y="150"/>
      <point x="371" y="78"/>
      <point x="273" y="78" type="curve" smooth="yes"/>
      <point x="88" y="78" type="line"/>
    </contour>
    <contour>
      <point x="88" y="0" type="line"/>
      <point x="177" y="0" type="line"/>
      <point x="177" y="714" type="line"/>
      <point x="88" y="714" type="line"/>
    </contour>
    <contour>
      <point x="530" y="0" type="curve" smooth="yes"/>
      <point x="598" y="0" type="line"/>
      <point x="598" y="78" type="line"/>
      <point x="545" y="78" type="line" smooth="yes"/>
      <point x="494" y="78"/>
      <point x="459" y="97"/>
      <point x="442" y="135" type="curve"/>
      <point x="424" y="62" type="line"/>
      <point x="455" y="21"/>
      <point x="477" y="0"/>
    </contour>
  </outline>
</glyph>
<glyph name="uni07D5.init" format="2">
  <advance width="564"/>
  <outline>
    <contour>
      <point x="15" y="0" type="curve" smooth="yes"/>
      <point x="270" y="0" type="line" smooth="yes"/>
      <point x="422" y="0"/>
      <point x="493" y="109"/>
      <point x="493" y="215" type="curve" smooth="yes"/>
      <point x="493" y="347"/>
      <point x="422" y="431"/>
      <point x="267" y="431" type="curve" smooth="yes"/>
      <point x="88" y="431" type="line"/>
      <point x="88" y="353" type="line"/>
      <point x="266" y="353" type="line" smooth="yes"/>
      <point x="354" y="353"/>
      <point x="402" y="301"/>
      <point x="402" y="215" type="curve" smooth="yes"/>
      <point x="402" y="150"/>
      <point x="371" y="78"/>
      <point x="273" y="78" type="curve" smooth="yes"/>
      <point x="-34" y="78" type="line"/>
      <point x="-34" y="16" type="line"/>
      <point x="-23" y="8"/>
      <point x="3" y="0"/>
    </contour>
    <contour>
      <point x="88" y="0" type="line"/>
      <point x="177" y="0" type="line"/>
      <point x="177" y="714" type="line"/>
      <point x="88" y="714" type="line"/>
    </contour>
  </outline>
</glyph>
<glyph name="uni07D6.fina" format="2">
  <advance width="487"/>
  <outline>
    <contour>
      <point x="289" y="0" type="line"/>
      <point x="378" y="0" type="line"/>
      <point x="378" y="124" type="line" smooth="yes"/>
      <point x="378" y="332"/>
      <point x="300" y="500"/>
      <point x="146" y="636" type="curve"/>
      <point x="437" y="636" type="line"/>
      <point x="437" y="714" type="line"/>
      <point x="39" y="714" type="line"/>
      <point x="39" y="636" type="line"/>
      <point x="223" y="471"/>
      <point x="289" y="354"/>
      <point x="289" y="124" type="curve" smooth="yes"/>
    </contour>
    <contour>
      <point x="327" y="0" type="line"/>
      <point x="521" y="0" type="line"/>
      <point x="521" y="78" type="line"/>
      <point x="327" y="78" type="line"/>
    </contour>
  </outline>
</glyph>
<glyph name="uni07D6.medi" format="2">
  <advance width="487"/>
  <outline>
    <contour>
      <point x="289" y="20" type="line"/>
      <point x="378" y="80" type="line"/>
      <point x="378" y="124" type="line" smooth="yes"/>
      <point x="378" y="332"/>
      <point x="300" y="500"/>
      <point x="146" y="636" type="curve"/>
      <point x="437" y="636" type="line"/>
      <point x="437" y="714" type="line"/>
      <point x="39" y="714" type="line"/>
      <point x="39" y="636" type="line"/>
      <point x="223" y="471"/>
      <point x="289" y="354"/>
      <point x="289" y="124" type="curve" smooth="yes"/>
    </contour>
    <contour>
      <point x="15" y="0" type="curve" smooth="yes"/>
      <point x="256" y="0" type="line" smooth="yes"/>
      <point x="325" y="0"/>
      <point x="378" y="36"/>
      <point x="378" y="117" type="curve"/>
      <point x="372" y="117" type="line"/>
      <point x="357" y="98"/>
      <point x="343" y="78"/>
      <point x="301" y="78" type="curve" smooth="yes"/>
      <point x="-34" y="78" type="line"/>
      <point x="-34" y="16" type="line"/>
      <point x="-23" y="8"/>
      <point x="3" y="0"/>
    </contour>
    <contour>
      <point x="466" y="0" type="curve" smooth="yes"/>
      <point x="521" y="0" type="line"/>
      <point x="521" y="78" type="line"/>
      <point x="481" y="78" type="line" smooth="yes"/>
      <point x="430" y="78"/>
      <point x="395" y="97"/>
      <point x="378" y="135" type="curve"/>
      <point x="360" y="62" type="line"/>
      <point x="391" y="21"/>
      <point x="413" y="0"/>
    </contour>
  </outline>
</glyph>
<glyph name="uni07D7.medi" format="2">
  <advance width="377"/>
  <outline>
    <contour>
      <point x="200" y="22" type="line"/>
      <point x="289" y="78" type="line"/>
      <point x="289" y="714" type="line"/>
      <point x="179" y="714" type="line"/>
      <point x="35" y="460" type="line"/>
      <point x="105" y="422" type="line"/>
      <point x="163" y="525" type="line" smooth="yes"/>
      <point x="176" y="547"/>
      <point x="194" y="585"/>
      <point x="202" y="605" type="curve"/>
      <point x="201" y="571"/>
      <point x="200" y="536"/>
      <point x="200" y="496" type="curve"/>
    </contour>
    <contour>
      <point x="15" y="0" type="curve" smooth="yes"/>
      <point x="167" y="0" type="line" smooth="yes"/>
      <point x="236" y="0"/>
      <point x="289" y="36"/>
      <point x="289" y="117" type="curve"/>
      <point x="283" y="117" type="line"/>
      <point x="268" y="98"/>
      <point x="254" y="78"/>
      <point x="212" y="78" type="curve" smooth="yes"/>
      <point x="-34" y="78" type="line"/>
      <point x="-34" y="16" type="line"/>
      <point x="-23" y="8"/>
      <point x="3" y="0"/>
    </contour>
    <contour>
      <point x="377" y="0" type="curve" smooth="yes"/>
      <point x="411" y="0" type="line"/>
      <point x="411" y="78" type="line"/>
      <point x="392" y="78" type="line" smooth="yes"/>
      <point x="341" y="78"/>
      <point x="306" y="97"/>
      <point x="289" y="135" type="curve"/>
      <point x="271" y="62" type="line"/>
      <point x="302" y="21"/>
      <point x="324" y="0"/>
    </contour>
  </outline>
</glyph>
<glyph name="uni07D8.init" format="2">
  <advance width="792"/>
  <outline>
    <contour>
      <point x="88" y="0" type="line"/>
      <point x="567" y="0" type="line"/>
      <point x="704" y="117" type="line"/>
      <point x="704" y="297" type="line" smooth="yes"/>
      <point x="704" y="449"/>
      <point x="635" y="520"/>
      <point x="520" y="520" type="curve" smooth="yes"/>
      <point x="440" y="520"/>
      <point x="385" y="473"/>
      <point x="364" y="406" type="curve"/>
      <point x="345" y="440"/>
      <point x="302" y="465"/>
      <point x="247" y="465" type="curve" smooth="yes"/>
      <point x="147" y="465"/>
      <point x="88" y="393"/>
      <point x="88" y="239" type="curve" smooth="yes"/>
    </contour>
    <contour>
      <point x="15" y="0" type="curve" smooth="yes"/>
      <point x="582" y="0" type="line" smooth="yes"/>
      <point x="651" y="0"/>
      <point x="704" y="36"/>
      <point x="704" y="117" type="curve"/>
      <point x="694" y="117" type="line"/>
      <point x="679" y="98"/>
      <point x="669" y="78"/>
      <point x="627" y="78" type="curve" smooth="yes"/>
      <point x="-34" y="78" type="line"/>
      <point x="-34" y="16" type="line"/>
      <point x="-23" y="8"/>
      <point x="3" y="0"/>
    </contour>
    <contour>
      <point x="177" y="78" type="line"/>
      <point x="177" y="245" type="line" smooth="yes"/>
      <point x="177" y="326"/>
      <point x="190" y="387"/>
      <point x="254" y="387" type="curve" smooth="yes"/>
      <point x="313" y="387"/>
      <point x="331" y="335"/>
      <point x="331" y="252" type="curve" smooth="yes"/>
      <point x="331" y="78" type="line"/>
    </contour>
    <contour>
      <point x="420" y="78" type="line"/>
      <point x="420" y="301" type="line" smooth="yes"/>
      <point x="420" y="386"/>
      <point x="451" y="442"/>
      <point x="519" y="442" type="curve" smooth="yes"/>
      <point x="587" y="442"/>
      <point x="615" y="392"/>
      <point x="615" y="308" type="curve" smooth="yes"/>
      <point x="615" y="78" type="line"/>
    </contour>
  </outline>
</glyph>
<glyph name="uni07D9.fina" format="2">
  <advance width="391"/>
  <outline>
    <contour>
      <point x="151" y="0" type="line"/>
      <point x="240" y="0" type="line"/>
      <point x="240" y="714" type="line"/>
      <point x="151" y="714" type="line"/>
    </contour>
    <contour>
      <point x="176" y="0" type="line"/>
      <point x="425" y="0" type="line"/>
      <point x="425" y="78" type="line"/>
      <point x="176" y="78" type="line"/>
    </contour>
    <contour>
      <point x="39" y="435" type="line"/>
      <point x="352" y="435" type="line"/>
      <point x="352" y="513" type="line"/>
      <point x="39" y="513" type="line"/>
    </contour>
  </outline>
</glyph>
<glyph name="uni07D9.init" format="2">
  <advance width="391"/>
  <outline>
    <contour>
      <point x="151" y="32" type="line"/>
      <point x="240" y="117" type="line"/>
      <point x="240" y="714" type="line"/>
      <point x="151" y="714" type="line"/>
    </contour>
    <contour>
      <point x="15" y="0" type="curve" smooth="yes"/>
      <point x="118" y="0" type="line" smooth="yes"/>
      <point x="187" y="0"/>
      <point x="240" y="36"/>
      <point x="240" y="117" type="curve"/>
      <point x="234" y="117" type="line"/>
      <point x="219" y="98"/>
      <point x="205" y="78"/>
      <point x="163" y="78" type="curve" smooth="yes"/>
      <point x="-34" y="78" type="line"/>
      <point x="-34" y="16" type="line"/>
      <point x="-23" y="8"/>
      <point x="3" y="0"/>
    </contour>
    <contour>
      <point x="39" y="435" type="line"/>
      <point x="352" y="435" type="line"/>
      <point x="352" y="513" type="line"/>
      <point x="39" y="513" type="line"/>
    </contour>
  </outline>
</glyph>
<glyph name="uni07DA.medi" format="2">
  <advance width="650"/>
  <outline>
    <contour>
      <point x="410" y="12" type="line"/>
      <point x="499" y="117" type="line"/>
      <point x="499" y="714" type="line"/>
      <point x="410" y="714" type="line"/>
    </contour>
    <contour>
      <point x="15" y="0" type="curve" smooth="yes"/>
      <point x="118" y="0" type="line" smooth="yes"/>
      <point x="187" y="0"/>
      <point x="240" y="36"/>
      <point x="240" y="117" type="curve"/>
      <point x="234" y="117" type="line"/>
      <point x="219" y="98"/>
      <point x="205" y="78"/>
      <point x="163" y="78" type="curve" smooth="yes"/>
      <point x="-34" y="78" type="line"/>
      <point x="-34" y="16" type="line"/>
      <point x="-23" y="8"/>
      <point x="3" y="0"/>
    </contour>
    <contour>
      <point x="328" y="0" type="curve" smooth="yes"/>
      <point x="362" y="0" type="line"/>
      <point x="362" y="78" type="line"/>
      <point x="343" y="78" type="line" smooth="yes"/>
      <point x="292" y="78"/>
      <point x="257" y="97"/>
      <point x="240" y="135" type="curve"/>
      <point x="222" y="62" type="line"/>
      <point x="253" y="21"/>
      <point x="275" y="0"/>
    </contour>
    <contour>
      <point x="343" y="0" type="curve" smooth="yes"/>
      <point x="377" y="0" type="line" smooth="yes"/>
      <point x="446" y="0"/>
      <point x="499" y="36"/>
      <point x="499" y="117" type="curve"/>
      <point x="493" y="117" type="line"/>
      <point x="478" y="98"/>
      <point x="464" y="78"/>
      <point x="422" y="78" type="curve" smooth="yes"/>
      <point x="294" y="78" type="line"/>
      <point x="294" y="16" type="line"/>
      <point x="305" y="8"/>
      <point x="331" y="0"/>
    </contour>
    <contour>
      <point x="151" y="15" type="line"/>
      <point x="240" y="116" type="line"/>
      <point x="240" y="714" type="line"/>
      <point x="151" y="714" type="line"/>
    </contour>
    <contour>
      <point x="587" y="0" type="curve" smooth="yes"/>
      <point x="684" y="0" type="line"/>
      <point x="684" y="78" type="line"/>
      <point x="602" y="78" type="line" smooth="yes"/>
      <point x="551" y="78"/>
      <point x="516" y="97"/>
      <point x="499" y="135" type="curve"/>
      <point x="481" y="62" type="line"/>
      <point x="512" y="21"/>
      <point x="534" y="0"/>
    </contour>
    <contour>
      <point x="39" y="435" type="line"/>
      <point x="362" y="435" type="line"/>
      <point x="362" y="513" type="line"/>
      <point x="39" y="513" type="line"/>
    </contour>
    <contour>
      <point x="308" y="435" type="line"/>
      <point x="611" y="435" type="line"/>
      <point x="611" y="513" type="line"/>
      <point x="308" y="513" type="line"/>
    </contour>
  </outline>
</glyph>
<glyph name="uni07DB.fina" format="2">
  <advance width="708"/>
  <outline>
    <contour>
      <point x="88" y="0" type="line"/>
      <point x="177" y="0" type="line"/>
      <point x="177" y="354" type="line" smooth="yes"/>
      <point x="177" y="404"/>
      <point x="193" y="435"/>
      <point x="242" y="435" type="curve" smooth="yes"/>
      <point x="365" y="435" type="line"/>
      <point x="365" y="513" type="line"/>
      <point x="249" y="513" type="line" smooth="yes"/>
      <point x="140" y="513"/>
      <point x="88" y="463"/>
      <point x="88" y="361" type="curve" smooth="yes"/>
    </contour>
    <contour>
      <point x="163" y="0" type="curve" smooth="yes"/>
      <point x="498" y="0" type="line" smooth="yes"/>
      <point x="567" y="0"/>
      <point x="620" y="36"/>
      <point x="620" y="117" type="curve"/>
      <point x="614" y="117" type="line"/>
      <point x="599" y="98"/>
      <point x="585" y="78"/>
      <point x="543" y="78" type="curve" smooth="yes"/>
      <point x="114" y="78" type="line"/>
      <point x="114" y="16" type="line"/>
      <point x="125" y="8"/>
      <point x="151" y="0"/>
    </contour>
    <contour>
      <point x="708" y="0" type="curve" smooth="yes"/>
      <point x="742" y="0" type="line"/>
      <point x="742" y="78" type="line"/>
      <point x="723" y="78" type="line" smooth="yes"/>
      <point x="672" y="78"/>
      <point x="637" y="97"/>
      <point x="620" y="135" type="curve"/>
      <point x="602" y="62" type="line"/>
      <point x="633" y="21"/>
      <point x="655" y="0"/>
    </contour>
    <contour>
      <point x="531" y="10" type="line"/>
      <point x="620" y="117" type="line"/>
      <point x="620" y="500" type="line"/>
      <point x="531" y="500" type="line"/>
    </contour>
    <contour>
      <point x="273" y="435" type="line"/>
      <point x="620" y="435" type="line"/>
      <point x="620" y="513" type="line"/>
      <point x="273" y="513" type="line"/>
    </contour>
  </outline>
</glyph>
<glyph name="uni07DB.medi" format="2">
  <advance width="708"/>
  <outline>
    <contour>
      <point x="88" y="0" type="line"/>
      <point x="177" y="0" type="line"/>
      <point x="177" y="354" type="line" smooth="yes"/>
      <point x="177" y="404"/>
      <point x="193" y="435"/>
      <point x="242" y="435" type="curve" smooth="yes"/>
      <point x="365" y="435" type="line"/>
      <point x="365" y="513" type="line"/>
      <point x="249" y="513" type="line" smooth="yes"/>
      <point x="140" y="513"/>
      <point x="88" y="463"/>
      <point x="88" y="361" type="curve" smooth="yes"/>
    </contour>
    <contour>
      <point x="15" y="0" type="curve" smooth="yes"/>
      <point x="498" y="0" type="line" smooth="yes"/>
      <point x="567" y="0"/>
      <point x="620" y="36"/>
      <point x="620" y="117" type="curve"/>
      <point x="614" y="117" type="line"/>
      <point x="599" y="98"/>
      <point x="585" y="78"/>
      <point x="543" y="78" type="curve" smooth="yes"/>
      <point x="-34" y="78" type="line"/>
      <point x="-34" y="16" type="line"/>
      <point x="-23" y="8"/>
      <point x="3" y="0"/>
    </contour>
    <contour>
      <point x="708" y="0" type="curve" smooth="yes"/>
      <point x="742" y="0" type="line"/>
      <point x="742" y="78" type="line"/>
      <point x="723" y="78" type="line" smooth="yes"/>
      <point x="672" y="78"/>
      <point x="637" y="97"/>
      <point x="620" y="135" type="curve"/>
      <point x="602" y="62" type="line"/>
      <point x="633" y="21"/>
      <point x="655" y="0"/>
    </contour>
    <contour>
      <point x="531" y="10" type="line"/>
      <point x="620" y="117" type="line"/>
      <point x="620" y="500" type="line"/>
      <point x="531" y="500" type="line"/>
    </contour>
    <contour>
      <point x="273" y="435" type="line"/>
      <point x="620" y="435" type="line"/>
      <point x="620" y="513" type="line"/>
      <point x="273" y="513" type="line"/>
    </contour>
  </outline>
</glyph>
<glyph name="uni07DC.fina" format="2">
  <advance width="576"/>
  <outline>
    <contour>
      <point x="244" y="0" type="line"/>
      <point x="333" y="0" type="line"/>
      <point x="537" y="670" type="line"/>
      <point x="446" y="670" type="line"/>
      <point x="322" y="257" type="line" smooth="yes"/>
      <point x="306" y="205"/>
      <point x="299" y="169"/>
      <point x="290" y="123" type="curve"/>
      <point x="282" y="169"/>
      <point x="273" y="199"/>
      <point x="255" y="259" type="curve" smooth="yes"/>
      <point x="132" y="670" type="line"/>
      <point x="39" y="670" type="line"/>
    </contour>
    <contour>
      <point x="269" y="0" type="line"/>
      <point x="610" y="0" type="line"/>
      <point x="610" y="78" type="line"/>
      <point x="269" y="78" type="line"/>
    </contour>
    <contour>
      <point x="100" y="636" type="line"/>
      <point x="481" y="636" type="line"/>
      <point x="537" y="670" type="line"/>
      <point x="537" y="714" type="line"/>
      <point x="39" y="714" type="line"/>
      <point x="39" y="670" type="line"/>
    </contour>
  </outline>
</glyph>
<glyph name="uni07DC.init" format="2">
  <advance width="576"/>
  <outline>
    <contour>
      <point x="244" y="0" type="line"/>
      <point x="356" y="74" type="line"/>
      <point x="537" y="670" type="line"/>
      <point x="446" y="670" type="line"/>
      <point x="322" y="257" type="line" smooth="yes"/>
      <point x="306" y="205"/>
      <point x="299" y="169"/>
      <point x="290" y="123" type="curve"/>
      <point x="282" y="169"/>
      <point x="273" y="199"/>
      <point x="255" y="259" type="curve" smooth="yes"/>
      <point x="132" y="670" type="line"/>
      <point x="39" y="670" type="line"/>
    </contour>
    <contour>
      <point x="15" y="0" type="curve" smooth="yes"/>
      <point x="239" y="0" type="line" smooth="yes"/>
      <point x="308" y="0"/>
      <point x="362" y="35"/>
      <point x="362" y="116" type="curve"/>
      <point x="355" y="117" type="line"/>
      <point x="340" y="98"/>
      <point x="326" y="78"/>
      <point x="284" y="78" type="curve" smooth="yes"/>
      <point x="-34" y="78" type="line"/>
      <point x="-34" y="16" type="line"/>
      <point x="-23" y="8"/>
      <point x="3" y="0"/>
    </contour>
    <contour>
      <point x="100" y="636" type="line"/>
      <point x="481" y="636" type="line"/>
      <point x="537" y="670" type="line"/>
      <point x="537" y="714" type="line"/>
      <point x="39" y="714" type="line"/>
      <point x="39" y="670" type="line"/>
    </contour>
  </outline>
</glyph>
<glyph name="uni07DD.fina" format="2">
  <advance width="733"/>
  <outline>
    <contour>
      <point x="361" y="134" type="line"/>
      <point x="450" y="156" type="line"/>
      <point x="450" y="545" type="line" smooth="yes"/>
      <point x="450" y="605"/>
      <point x="475" y="636"/>
      <point x="522" y="636" type="curve" smooth="yes"/>
      <point x="568" y="636"/>
      <point x="595" y="604"/>
      <point x="595" y="552" type="curve" smooth="yes"/>
      <point x="595" y="500"/>
      <point x="573" y="455"/>
      <point x="490" y="455" type="curve" smooth="yes"/>
      <point x="330" y="455" type="line"/>
      <point x="330" y="377" type="line"/>
      <point x="487" y="377" type="line" smooth="yes"/>
      <point x="622" y="377"/>
      <point x="684" y="452"/>
      <point x="684" y="550" type="curve" smooth="yes"/>
      <point x="684" y="642"/>
      <point x="624" y="714"/>
      <point x="527" y="714" type="curve" smooth="yes"/>
      <point x="420" y="714"/>
      <point x="361" y="646"/>
      <point x="361" y="537" type="curve" smooth="yes"/>
    </contour>
    <contour>
      <point x="88" y="0" type="line"/>
      <point x="177" y="0" type="line"/>
      <point x="177" y="296" type="line" smooth="yes"/>
      <point x="177" y="346"/>
      <point x="193" y="377"/>
      <point x="242" y="377" type="curve" smooth="yes"/>
      <point x="365" y="377" type="line"/>
      <point x="365" y="455" type="line"/>
      <point x="249" y="455" type="line" smooth="yes"/>
      <point x="140" y="455"/>
      <point x="88" y="405"/>
      <point x="88" y="303" type="curve" smooth="yes"/>
    </contour>
    <contour>
      <point x="173" y="0" type="line"/>
      <point x="289" y="0" type="line"/>
      <point x="398" y="0"/>
      <point x="450" y="50"/>
      <point x="450" y="152" type="curve" smooth="yes"/>
      <point x="450" y="513" type="line"/>
      <point x="361" y="513" type="line"/>
      <point x="361" y="159" type="line" smooth="yes"/>
      <point x="361" y="109"/>
      <point x="345" y="78"/>
      <point x="296" y="78" type="curve" smooth="yes"/>
      <point x="173" y="78" type="line"/>
    </contour>
    <contour>
      <point x="555" y="0" type="curve" smooth="yes"/>
      <point x="767" y="0" type="line"/>
      <point x="767" y="78" type="line"/>
      <point x="551" y="78" type="line" smooth="yes"/>
      <point x="500" y="78"/>
      <point x="465" y="97"/>
      <point x="448" y="135" type="curve"/>
      <point x="430" y="63" type="line"/>
      <point x="467" y="21"/>
      <point x="492" y="0"/>
    </contour>
  </outline>
</glyph>
<glyph name="uni07DE.medi" format="2">
  <advance width="544"/>
  <outline>
    <contour>
      <point x="367" y="25" type="line"/>
      <point x="456" y="74" type="line"/>
      <point x="456" y="714" type="line"/>
      <point x="367" y="714" type="line"/>
    </contour>
    <contour>
      <point x="15" y="0" type="curve" smooth="yes"/>
      <point x="334" y="0" type="line" smooth="yes"/>
      <point x="403" y="0"/>
      <point x="456" y="36"/>
      <point x="456" y="117" type="curve"/>
      <point x="450" y="117" type="line"/>
      <point x="435" y="98"/>
      <point x="421" y="78"/>
      <point x="379" y="78" type="curve" smooth="yes"/>
      <point x="-34" y="78" type="line"/>
      <point x="-34" y="16" type="line"/>
      <point x="-23" y="8"/>
      <point x="3" y="0"/>
    </contour>
    <contour>
      <point x="544" y="0" type="curve" smooth="yes"/>
      <point x="578" y="0" type="line"/>
      <point x="578" y="78" type="line"/>
      <point x="559" y="78" type="line" smooth="yes"/>
      <point x="508" y="78"/>
      <point x="473" y="97"/>
      <point x="456" y="135" type="curve"/>
      <point x="438" y="62" type="line"/>
      <point x="469" y="21"/>
      <point x="491" y="0"/>
    </contour>
    <contour>
      <point x="78" y="286" type="line"/>
      <point x="167" y="286" type="line"/>
      <point x="167" y="643" type="line"/>
      <point x="78" y="643" type="line"/>
    </contour>
    <contour>
      <point x="122" y="435" type="line"/>
      <point x="425" y="435" type="line"/>
      <point x="425" y="513" type="line"/>
      <point x="122" y="513" type="line"/>
    </contour>
  </outline>
</glyph>
<glyph name="uni07DF.fina" format="2">
  <advance width="578"/>
  <outline>
    <contour>
      <point x="299" y="0" type="line"/>
      <point x="388" y="0" type="line"/>
      <point x="388" y="536" type="line" smooth="yes"/>
      <point x="388" y="640"/>
      <point x="332" y="714"/>
      <point x="222" y="714" type="curve" smooth="yes"/>
      <point x="122" y="714"/>
      <point x="46" y="649"/>
      <point x="46" y="537" type="curve" smooth="yes"/>
      <point x="46" y="430"/>
      <point x="115" y="353"/>
      <point x="258" y="353" type="curve" smooth="yes"/>
      <point x="539" y="353" type="line"/>
      <point x="539" y="431" type="line"/>
      <point x="261" y="431" type="line" smooth="yes"/>
      <point x="173" y="431"/>
      <point x="135" y="474"/>
      <point x="135" y="541" type="curve" smooth="yes"/>
      <point x="135" y="600"/>
      <point x="170" y="636"/>
      <point x="221" y="636" type="curve" smooth="yes"/>
      <point x="273" y="636"/>
      <point x="299" y="602"/>
      <point x="299" y="543" type="curve" smooth="yes"/>
    </contour>
    <contour>
      <point x="336" y="0" type="line"/>
      <point x="612" y="0" type="line"/>
      <point x="612" y="78" type="line"/>
      <point x="336" y="78" type="line"/>
    </contour>
  </outline>
</glyph>
<glyph name="uni07DF.medi" format="2">
  <advance width="578"/>
  <outline>
    <contour>
      <point x="299" y="6" type="line"/>
      <point x="388" y="117" type="line"/>
      <point x="388" y="536" type="line" smooth="yes"/>
      <point x="388" y="640"/>
      <point x="332" y="714"/>
      <point x="222" y="714" type="curve" smooth="yes"/>
      <point x="122" y="714"/>
      <point x="46" y="649"/>
      <point x="46" y="537" type="curve" smooth="yes"/>
      <point x="46" y="430"/>
      <point x="115" y="353"/>
      <point x="258" y="353" type="curve" smooth="yes"/>
      <point x="539" y="353" type="line"/>
      <point x="539" y="431" type="line"/>
      <point x="261" y="431" type="line" smooth="yes"/>
      <point x="173" y="431"/>
      <point x="135" y="474"/>
      <point x="135" y="541" type="curve" smooth="yes"/>
      <point x="135" y="600"/>
      <point x="170" y="636"/>
      <point x="221" y="636" type="curve" smooth="yes"/>
      <point x="273" y="636"/>
      <point x="299" y="602"/>
      <point x="299" y="543" type="curve" smooth="yes"/>
    </contour>
    <contour>
      <point x="15" y="0" type="curve" smooth="yes"/>
      <point x="266" y="0" type="line" smooth="yes"/>
      <point x="335" y="0"/>
      <point x="388" y="36"/>
      <point x="388" y="117" type="curve"/>
      <point x="382" y="117" type="line"/>
      <point x="367" y="98"/>
      <point x="353" y="78"/>
      <point x="311" y="78" type="curve" smooth="yes"/>
      <point x="-34" y="78" type="line"/>
      <point x="-34" y="16" type="line"/>
      <point x="-23" y="8"/>
      <point x="3" y="0"/>
    </contour>
    <contour>
      <point x="495" y="0" type="curve" smooth="yes"/>
      <point x="612" y="0" type="line"/>
      <point x="612" y="78" type="line"/>
      <point x="491" y="78" type="line" smooth="yes"/>
      <point x="440" y="78"/>
      <point x="405" y="97"/>
      <point x="388" y="135" type="curve"/>
      <point x="370" y="63" type="line"/>
      <point x="407" y="21"/>
      <point x="432" y="0"/>
    </contour>
  </outline>
</glyph>
<glyph name="uni07E0.fina" format="2">
  <advance width="521"/>
  <outline>
    <contour>
      <point x="216" y="0" type="line"/>
      <point x="305" y="0" type="line"/>
      <point x="305" y="714" type="line"/>
      <point x="216" y="714" type="line"/>
    </contour>
    <contour>
      <point x="254" y="0" type="line"/>
      <point x="555" y="0" type="line"/>
      <point x="555" y="78" type="line"/>
      <point x="254" y="78" type="line"/>
    </contour>
    <contour>
      <point x="50" y="636" type="line"/>
      <point x="471" y="636" type="line"/>
      <point x="471" y="714" type="line"/>
      <point x="50" y="714" type="line"/>
    </contour>
  </outline>
</glyph>
<glyph name="uni07E0.medi" format="2">
  <advance width="521"/>
  <outline>
    <contour>
      <point x="216" y="12" type="line"/>
      <point x="305" y="117" type="line"/>
      <point x="305" y="714" type="line"/>
      <point x="216" y="714" type="line"/>
    </contour>
    <contour>
      <point x="15" y="0" type="curve" smooth="yes"/>
      <point x="183" y="0" type="line" smooth="yes"/>
      <point x="252" y="0"/>
      <point x="305" y="36"/>
      <point x="305" y="117" type="curve"/>
      <point x="299" y="117" type="line"/>
      <point x="284" y="98"/>
      <point x="270" y="78"/>
      <point x="228" y="78" type="curve" smooth="yes"/>
      <point x="-34" y="78" type="line"/>
      <point x="-34" y="16" type="line"/>
      <point x="-23" y="8"/>
      <point x="3" y="0"/>
    </contour>
    <contour>
      <point x="412" y="0" type="curve" smooth="yes"/>
      <point x="555" y="0" type="line"/>
      <point x="555" y="78" type="line"/>
      <point x="408" y="78" type="line" smooth="yes"/>
      <point x="357" y="78"/>
      <point x="322" y="97"/>
      <point x="305" y="135" type="curve"/>
      <point x="287" y="63" type="line"/>
      <point x="324" y="21"/>
      <point x="349" y="0"/>
    </contour>
    <contour>
      <point x="50" y="636" type="line"/>
      <point x="471" y="636" type="line"/>
      <point x="471" y="714" type="line"/>
      <point x="50" y="714" type="line"/>
    </contour>
  </outline>
</glyph>
<glyph name="uni07E2.fina" format="2">
  <advance width="541"/>
  <outline>
    <contour>
      <point x="283" y="200" type="curve" smooth="yes"/>
      <point x="412" y="200"/>
      <point x="472" y="272"/>
      <point x="472" y="363" type="curve" smooth="yes"/>
      <point x="472" y="458"/>
      <point x="412" y="526"/>
      <point x="279" y="526" type="curve" smooth="yes"/>
      <point x="151" y="526"/>
      <point x="87" y="459"/>
      <point x="87" y="364" type="curve" smooth="yes"/>
      <point x="87" y="271"/>
      <point x="146" y="200"/>
    </contour>
    <contour>
      <point x="235" y="0" type="line"/>
      <point x="324" y="0" type="line"/>
      <point x="324" y="252" type="line"/>
      <point x="235" y="252" type="line"/>
    </contour>
    <contour>
      <point x="282" y="0" type="line"/>
      <point x="575" y="0" type="line"/>
      <point x="575" y="78" type="line"/>
      <point x="282" y="78" type="line"/>
    </contour>
    <contour>
      <point x="281" y="278" type="curve" smooth="yes"/>
      <point x="210" y="278"/>
      <point x="177" y="313"/>
      <point x="177" y="363" type="curve" smooth="yes"/>
      <point x="177" y="413"/>
      <point x="211" y="448"/>
      <point x="279" y="448" type="curve" smooth="yes"/>
      <point x="345" y="448"/>
      <point x="382" y="416"/>
      <point x="382" y="363" type="curve" smooth="yes"/>
      <point x="382" y="310"/>
      <point x="346" y="278"/>
    </contour>
    <contour>
      <point x="49" y="636" type="line"/>
      <point x="284" y="636" type="line"/>
      <point x="284" y="714" type="line"/>
      <point x="49" y="714" type="line"/>
    </contour>
    <contour>
      <point x="235" y="468" type="line"/>
      <point x="324" y="468" type="line"/>
      <point x="324" y="714" type="line"/>
      <point x="235" y="714" type="line"/>
    </contour>
  </outline>
</glyph>
<glyph name="uni07E2.medi" format="2">
  <advance width="541"/>
  <outline>
    <contour>
      <point x="283" y="200" type="curve" smooth="yes"/>
      <point x="412" y="200"/>
      <point x="472" y="272"/>
      <point x="472" y="363" type="curve" smooth="yes"/>
      <point x="472" y="458"/>
      <point x="412" y="526"/>
      <point x="279" y="526" type="curve" smooth="yes"/>
      <point x="151" y="526"/>
      <point x="87" y="459"/>
      <point x="87" y="364" type="curve" smooth="yes"/>
      <point x="87" y="271"/>
      <point x="146" y="200"/>
    </contour>
    <contour>
      <point x="15" y="0" type="curve" smooth="yes"/>
      <point x="202" y="0" type="line" smooth="yes"/>
      <point x="271" y="0"/>
      <point x="324" y="36"/>
      <point x="324" y="117" type="curve"/>
      <point x="318" y="117" type="line"/>
      <point x="303" y="98"/>
      <point x="289" y="78"/>
      <point x="247" y="78" type="curve" smooth="yes"/>
      <point x="-34" y="78" type="line"/>
      <point x="-34" y="16" type="line"/>
      <point x="-23" y="8"/>
      <point x="3" y="0"/>
    </contour>
    <contour>
      <point x="235" y="11" type="line"/>
      <point x="324" y="117" type="line"/>
      <point x="324" y="252" type="line"/>
      <point x="235" y="252" type="line"/>
    </contour>
    <contour>
      <point x="431" y="0" type="curve" smooth="yes"/>
      <point x="575" y="0" type="line"/>
      <point x="575" y="78" type="line"/>
      <point x="427" y="78" type="line" smooth="yes"/>
      <point x="376" y="78"/>
      <point x="341" y="97"/>
      <point x="324" y="135" type="curve"/>
      <point x="306" y="63" type="line"/>
      <point x="343" y="21"/>
      <point x="368" y="0"/>
    </contour>
    <contour>
      <point x="281" y="278" type="curve" smooth="yes"/>
      <point x="210" y="278"/>
      <point x="177" y="313"/>
      <point x="177" y="363" type="curve" smooth="yes"/>
      <point x="177" y="413"/>
      <point x="211" y="448"/>
      <point x="279" y="448" type="curve" smooth="yes"/>
      <point x="345" y="448"/>
      <point x="382" y="416"/>
      <point x="382" y="363" type="curve" smooth="yes"/>
      <point x="382" y="310"/>
      <point x="346" y="278"/>
    </contour>
    <contour>
      <point x="49" y="636" type="line"/>
      <point x="284" y="636" type="line"/>
      <point x="284" y="714" type="line"/>
      <point x="49" y="714" type="line"/>
    </contour>
    <contour>
      <point x="235" y="468" type="line"/>
      <point x="324" y="468" type="line"/>
      <point x="324" y="714" type="line"/>
      <point x="235" y="714" type="line"/>
    </contour>
  </outline>
</glyph>
<glyph name="uni07E3.fina" format="2">
  <advance width="544"/>
  <outline>
    <contour>
      <point x="78" y="405" type="line"/>
      <point x="167" y="405" type="line"/>
      <point x="167" y="555" type="line" smooth="yes"/>
      <point x="167" y="605"/>
      <point x="183" y="636"/>
      <point x="232" y="636" type="curve" smooth="yes"/>
      <point x="385" y="636" type="line"/>
      <point x="385" y="714" type="line"/>
      <point x="239" y="714" type="line" smooth="yes"/>
      <point x="130" y="714"/>
      <point x="78" y="664"/>
      <point x="78" y="562" type="curve" smooth="yes"/>
    </contour>
    <contour>
      <point x="407" y="0" type="line"/>
      <point x="578" y="0" type="line"/>
      <point x="578" y="78" type="line"/>
      <point x="407" y="78" type="line"/>
    </contour>
    <contour>
      <point x="367" y="0" type="line"/>
      <point x="456" y="0" type="line"/>
      <point x="456" y="714" type="line"/>
      <point x="367" y="714" type="line"/>
    </contour>
  </outline>
</glyph>
<glyph name="uni07E3.init" format="2">
  <advance width="544"/>
  <outline>
    <contour>
      <point x="78" y="405" type="line"/>
      <point x="167" y="405" type="line"/>
      <point x="167" y="555" type="line" smooth="yes"/>
      <point x="167" y="605"/>
      <point x="183" y="636"/>
      <point x="232" y="636" type="curve" smooth="yes"/>
      <point x="385" y="636" type="line"/>
      <point x="385" y="714" type="line"/>
      <point x="239" y="714" type="line" smooth="yes"/>
      <point x="130" y="714"/>
      <point x="78" y="664"/>
      <point x="78" y="562" type="curve" smooth="yes"/>
    </contour>
    <contour>
      <point x="15" y="0" type="curve" smooth="yes"/>
      <point x="334" y="0" type="line" smooth="yes"/>
      <point x="403" y="0"/>
      <point x="456" y="36"/>
      <point x="456" y="117" type="curve"/>
      <point x="450" y="117" type="line"/>
      <point x="435" y="98"/>
      <point x="421" y="78"/>
      <point x="379" y="78" type="curve" smooth="yes"/>
      <point x="-34" y="78" type="line"/>
      <point x="-34" y="16" type="line"/>
      <point x="-23" y="8"/>
      <point x="3" y="0"/>
    </contour>
    <contour>
      <point x="367" y="23" type="line"/>
      <point x="456" y="117" type="line"/>
      <point x="456" y="714" type="line"/>
      <point x="367" y="714" type="line"/>
    </contour>
  </outline>
</glyph>
<glyph name="uni07E4.init" format="2">
  <advance width="544"/>
  <outline>
    <contour>
      <point x="15" y="0" type="curve" smooth="yes"/>
      <point x="334" y="0" type="line" smooth="yes"/>
      <point x="403" y="0"/>
      <point x="456" y="36"/>
      <point x="456" y="117" type="curve"/>
      <point x="450" y="117" type="line"/>
      <point x="435" y="98"/>
      <point x="421" y="78"/>
      <point x="379" y="78" type="curve" smooth="yes"/>
      <point x="-34" y="78" type="line"/>
      <point x="-34" y="16" type="line"/>
      <point x="-23" y="8"/>
      <point x="3" y="0"/>
    </contour>
    <contour>
      <point x="78" y="329" type="line"/>
      <point x="167" y="329" type="line"/>
      <point x="167" y="714" type="line"/>
      <point x="78" y="714" type="line"/>
    </contour>
    <contour>
      <point x="367" y="12" type="line"/>
      <point x="456" y="117" type="line"/>
      <point x="456" y="559" type="line"/>
      <point x="367" y="559" type="line"/>
    </contour>
    <contour>
      <point x="109" y="481" type="line"/>
      <point x="426" y="481" type="line"/>
      <point x="426" y="559" type="line"/>
      <point x="109" y="559" type="line"/>
    </contour>
  </outline>
</glyph>
<glyph name="uni07E5.init" format="2">
  <advance width="525"/>
  <outline>
    <contour>
      <point x="88" y="0" type="line"/>
      <point x="177" y="0" type="line"/>
      <point x="177" y="272" type="line" smooth="yes"/>
      <point x="177" y="322"/>
      <point x="193" y="353"/>
      <point x="242" y="353" type="curve" smooth="yes"/>
      <point x="365" y="353" type="line"/>
      <point x="365" y="431" type="line"/>
      <point x="249" y="431" type="line" smooth="yes"/>
      <point x="140" y="431"/>
      <point x="88" y="381"/>
      <point x="88" y="279" type="curve" smooth="yes"/>
    </contour>
    <contour>
      <point x="15" y="0" type="curve" smooth="yes"/>
      <point x="315" y="0" type="line" smooth="yes"/>
      <point x="384" y="0"/>
      <point x="437" y="36"/>
      <point x="437" y="117" type="curve"/>
      <point x="431" y="117" type="line"/>
      <point x="416" y="98"/>
      <point x="402" y="78"/>
      <point x="360" y="78" type="curve" smooth="yes"/>
      <point x="-34" y="78" type="line"/>
      <point x="-34" y="16" type="line"/>
      <point x="-23" y="8"/>
      <point x="3" y="0"/>
    </contour>
    <contour>
      <point x="348" y="26" type="line"/>
      <point x="437" y="117" type="line"/>
      <point x="437" y="714" type="line"/>
      <point x="348" y="714" type="line"/>
    </contour>
    <contour>
      <point x="98" y="636" type="line"/>
      <point x="365" y="636" type="line"/>
      <point x="365" y="714" type="line"/>
      <point x="98" y="714" type="line"/>
    </contour>
  </outline>
</glyph>
<glyph name="uni07E6.init" format="2">
  <advance width="521"/>
  <outline>
    <contour>
      <point x="264" y="200" type="curve" smooth="yes"/>
      <point x="393" y="200"/>
      <point x="453" y="272"/>
      <point x="453" y="363" type="curve" smooth="yes"/>
      <point x="453" y="458"/>
      <point x="393" y="526"/>
      <point x="260" y="526" type="curve" smooth="yes"/>
      <point x="132" y="526"/>
      <point x="68" y="459"/>
      <point x="68" y="364" type="curve" smooth="yes"/>
      <point x="68" y="271"/>
      <point x="127" y="200"/>
    </contour>
    <contour>
      <point x="15" y="0" type="curve" smooth="yes"/>
      <point x="183" y="0" type="line" smooth="yes"/>
      <point x="252" y="0"/>
      <point x="305" y="36"/>
      <point x="305" y="117" type="curve"/>
      <point x="299" y="117" type="line"/>
      <point x="284" y="98"/>
      <point x="270" y="78"/>
      <point x="228" y="78" type="curve" smooth="yes"/>
      <point x="-34" y="78" type="line"/>
      <point x="-34" y="16" type="line"/>
      <point x="-23" y="8"/>
      <point x="3" y="0"/>
    </contour>
    <contour>
      <point x="216" y="9" type="line"/>
      <point x="305" y="117" type="line"/>
      <point x="305" y="252" type="line"/>
      <point x="216" y="252" type="line"/>
    </contour>
    <contour>
      <point x="262" y="278" type="curve" smooth="yes"/>
      <point x="191" y="278"/>
      <point x="158" y="313"/>
      <point x="158" y="363" type="curve" smooth="yes"/>
      <point x="158" y="413"/>
      <point x="192" y="448"/>
      <point x="260" y="448" type="curve" smooth="yes"/>
      <point x="326" y="448"/>
      <point x="363" y="416"/>
      <point x="363" y="363" type="curve" smooth="yes"/>
      <point x="363" y="310"/>
      <point x="327" y="278"/>
    </contour>
    <contour>
      <point x="216" y="468" type="line"/>
      <point x="305" y="468" type="line"/>
      <point x="305" y="714" type="line"/>
      <point x="216" y="714" type="line"/>
    </contour>
  </outline>
</glyph>
<glyph name="uni07E7.medi" format="2">
  <advance width="529"/>
  <outline>
    <contour>
      <point x="268" y="200" type="curve" smooth="yes"/>
      <point x="397" y="200"/>
      <point x="457" y="272"/>
      <point x="457" y="363" type="curve" smooth="yes"/>
      <point x="457" y="458"/>
      <point x="397" y="526"/>
      <point x="264" y="526" type="curve" smooth="yes"/>
      <point x="136" y="526"/>
      <point x="72" y="459"/>
      <point x="72" y="364" type="curve" smooth="yes"/>
      <point x="72" y="271"/>
      <point x="131" y="200"/>
    </contour>
    <contour>
      <point x="15" y="0" type="curve" smooth="yes"/>
      <point x="187" y="0" type="line" smooth="yes"/>
      <point x="256" y="0"/>
      <point x="309" y="36"/>
      <point x="309" y="117" type="curve"/>
      <point x="303" y="117" type="line"/>
      <point x="288" y="98"/>
      <point x="274" y="78"/>
      <point x="232" y="78" type="curve" smooth="yes"/>
      <point x="-34" y="78" type="line"/>
      <point x="-34" y="16" type="line"/>
      <point x="-23" y="8"/>
      <point x="3" y="0"/>
    </contour>
    <contour>
      <point x="220" y="6" type="line"/>
      <point x="309" y="117" type="line"/>
      <point x="309" y="252" type="line"/>
      <point x="220" y="252" type="line"/>
    </contour>
    <contour>
      <point x="416" y="0" type="curve" smooth="yes"/>
      <point x="563" y="0" type="line"/>
      <point x="563" y="78" type="line"/>
      <point x="412" y="78" type="line" smooth="yes"/>
      <point x="361" y="78"/>
      <point x="326" y="97"/>
      <point x="309" y="135" type="curve"/>
      <point x="291" y="63" type="line"/>
      <point x="328" y="21"/>
      <point x="353" y="0"/>
    </contour>
    <contour>
      <point x="266" y="278" type="curve" smooth="yes"/>
      <point x="195" y="278"/>
      <point x="162" y="313"/>
      <point x="162" y="363" type="curve" smooth="yes"/>
      <point x="162" y="413"/>
      <point x="196" y="448"/>
      <point x="264" y="448" type="curve" smooth="yes"/>
      <point x="330" y="448"/>
      <point x="367" y="416"/>
      <point x="367" y="363" type="curve" smooth="yes"/>
      <point x="367" y="310"/>
      <point x="331" y="278"/>
    </contour>
    <contour>
      <point x="220" y="468" type="line"/>
      <point x="309" y="468" type="line"/>
      <point x="309" y="714" type="line"/>
      <point x="220" y="714" type="line"/>
    </contour>
    <contour>
      <point x="49" y="636" type="line"/>
      <point x="480" y="636" type="line"/>
      <point x="480" y="714" type="line"/>
      <point x="49" y="714" type="line"/>
    </contour>
  </outline>
</glyph>
<glyph name="uni07E8.fina" format="2">
  <advance width="453"/>
  <outline>
    <contour>
      <point x="189" y="-272" type="curve" smooth="yes"/>
      <point x="305" y="-272"/>
      <point x="396" y="-197"/>
      <point x="432" y="-44" type="curve"/>
      <point x="366" y="-44" type="line"/>
      <point x="346" y="-110"/>
      <point x="284" y="-195"/>
      <point x="210" y="-195" type="curve" smooth="yes"/>
      <point x="200" y="-195"/>
      <point x="193" y="-194"/>
      <point x="187" y="-192" type="curve"/>
      <point x="218" y="-132"/>
      <point x="268" y="-44"/>
      <point x="283" y="-13" type="curve" smooth="yes"/>
      <point x="342" y="109"/>
      <point x="387" y="192"/>
      <point x="422" y="280" type="curve"/>
      <point x="330" y="280" type="line"/>
      <point x="298" y="204"/>
      <point x="243" y="91"/>
      <point x="196" y="-1" type="curve" smooth="yes"/>
      <point x="160" y="-72"/>
      <point x="86" y="-195"/>
      <point x="86" y="-212" type="curve" smooth="yes"/>
      <point x="86" y="-242"/>
      <point x="122" y="-272"/>
    </contour>
    <contour>
      <point x="439" y="0" type="curve" smooth="yes"/>
      <point x="487" y="0" type="line"/>
      <point x="487" y="78" type="line"/>
      <point x="435" y="78" type="line" smooth="yes"/>
      <point x="384" y="78"/>
      <point x="349" y="97"/>
      <point x="332" y="135" type="curve"/>
      <point x="314" y="63" type="line"/>
      <point x="351" y="21"/>
      <point x="376" y="0"/>
    </contour>
  </outline>
</glyph>
<glyph name="uni07E8.medi" format="2">
  <advance width="453"/>
  <outline>
    <contour>
      <point x="189" y="-272" type="curve" smooth="yes"/>
      <point x="305" y="-272"/>
      <point x="396" y="-197"/>
      <point x="432" y="-44" type="curve"/>
      <point x="366" y="-44" type="line"/>
      <point x="353" y="-87"/>
      <point x="320" y="-137"/>
      <point x="289" y="-163" type="curve" smooth="yes"/>
      <point x="258" y="-189"/>
      <point x="228" y="-195"/>
      <point x="210" y="-195" type="curve" smooth="yes"/>
      <point x="200" y="-195"/>
      <point x="193" y="-194"/>
      <point x="187" y="-192" type="curve"/>
      <point x="218" y="-132"/>
      <point x="268" y="-44"/>
      <point x="283" y="-13" type="curve" smooth="yes"/>
      <point x="342" y="109"/>
      <point x="387" y="192"/>
      <point x="422" y="280" type="curve"/>
      <point x="330" y="280" type="line"/>
      <point x="298" y="204"/>
      <point x="240" y="85"/>
      <point x="193" y="-7" type="curve" smooth="yes"/>
      <point x="157" y="-78"/>
      <point x="86" y="-195"/>
      <point x="86" y="-212" type="curve" smooth="yes"/>
      <point x="86" y="-242"/>
      <point x="122" y="-272"/>
    </contour>
    <contour>
      <point x="15" y="0" type="curve" smooth="yes"/>
      <point x="250" y="0" type="line"/>
      <point x="250" y="78" type="line"/>
      <point x="-34" y="78" type="line"/>
      <point x="-34" y="16" type="line"/>
      <point x="-23" y="8"/>
      <point x="3" y="0"/>
    </contour>
    <contour>
      <point x="439" y="0" type="curve" smooth="yes"/>
      <point x="487" y="0" type="line"/>
      <point x="487" y="78" type="line"/>
      <point x="435" y="78" type="line" smooth="yes"/>
      <point x="384" y="78"/>
      <point x="349" y="97"/>
      <point x="332" y="135" type="curve"/>
      <point x="314" y="63" type="line"/>
      <point x="351" y="21"/>
      <point x="376" y="0"/>
    </contour>
  </outline>
</glyph>
<glyph name="uni07E9.fina" format="2">
  <advance width="453"/>
  <outline>
    <contour>
      <point x="195" y="-272" type="curve" smooth="yes"/>
      <point x="321" y="-272"/>
      <point x="415" y="-175"/>
      <point x="415" y="-103" type="curve" smooth="yes"/>
      <point x="415" y="-32"/>
      <point x="350" y="-14"/>
      <point x="300" y="-14" type="curve" smooth="yes"/>
      <point x="282" y="-14" type="line"/>
      <point x="334" y="88"/>
      <point x="387" y="192"/>
      <point x="422" y="280" type="curve"/>
      <point x="330" y="280" type="line"/>
      <point x="318" y="244"/>
      <point x="256" y="113"/>
      <point x="196" y="-1" type="curve" smooth="yes"/>
      <point x="141" y="-106"/>
      <point x="86" y="-194"/>
      <point x="86" y="-212" type="curve" smooth="yes"/>
      <point x="86" y="-247"/>
      <point x="129" y="-272"/>
    </contour>
    <contour>
      <point x="210" y="-195" type="curve" smooth="yes"/>
      <point x="203" y="-195"/>
      <point x="193" y="-194"/>
      <point x="187" y="-192" type="curve"/>
      <point x="207" y="-155"/>
      <point x="228" y="-118"/>
      <point x="247" y="-81" type="curve"/>
      <point x="273" y="-81" type="line" smooth="yes"/>
      <point x="306" y="-81"/>
      <point x="326" y="-85"/>
      <point x="326" y="-112" type="curve" smooth="yes"/>
      <point x="326" y="-155"/>
      <point x="262" y="-195"/>
    </contour>
    <contour>
      <point x="439" y="0" type="curve" smooth="yes"/>
      <point x="487" y="0" type="line"/>
      <point x="487" y="78" type="line"/>
      <point x="435" y="78" type="line" smooth="yes"/>
      <point x="384" y="78"/>
      <point x="349" y="97"/>
      <point x="332" y="135" type="curve"/>
      <point x="314" y="63" type="line"/>
      <point x="351" y="21"/>
      <point x="376" y="0"/>
    </contour>
  </outline>
</glyph>
<glyph name="uni07E9.init" format="2">
  <advance width="453"/>
  <outline>
    <contour>
      <point x="195" y="-272" type="curve" smooth="yes"/>
      <point x="321" y="-272"/>
      <point x="415" y="-175"/>
      <point x="415" y="-103" type="curve" smooth="yes"/>
      <point x="415" y="-32"/>
      <point x="350" y="-14"/>
      <point x="300" y="-14" type="curve" smooth="yes"/>
      <point x="282" y="-14" type="line"/>
      <point x="334" y="88"/>
      <point x="387" y="192"/>
      <point x="422" y="280" type="curve"/>
      <point x="330" y="280" type="line"/>
      <point x="318" y="244"/>
      <point x="254" y="109"/>
      <point x="194" y="-5" type="curve" smooth="yes"/>
      <point x="139" y="-110"/>
      <point x="86" y="-194"/>
      <point x="86" y="-212" type="curve" smooth="yes"/>
      <point x="86" y="-247"/>
      <point x="129" y="-272"/>
    </contour>
    <contour>
      <point x="210" y="-195" type="curve" smooth="yes"/>
      <point x="203" y="-195"/>
      <point x="193" y="-194"/>
      <point x="187" y="-192" type="curve"/>
      <point x="207" y="-155"/>
      <point x="228" y="-118"/>
      <point x="247" y="-81" type="curve"/>
      <point x="273" y="-81" type="line" smooth="yes"/>
      <point x="306" y="-81"/>
      <point x="326" y="-85"/>
      <point x="326" y="-112" type="curve" smooth="yes"/>
      <point x="326" y="-155"/>
      <point x="263" y="-195"/>
    </contour>
    <contour>
      <point x="15" y="0" type="curve" smooth="yes"/>
      <point x="273" y="0" type="line"/>
      <point x="273" y="78" type="line"/>
      <point x="-34" y="78" type="line"/>
      <point x="-34" y="16" type="line"/>
      <point x="-23" y="8"/>
      <point x="3" y="0"/>
    </contour>
  </outline>
</glyph>
<glyph name="uni07EA.init" format="2">
  <advance width="391"/>
  <outline>
    <contour>
      <point x="151" y="-272" type="line"/>
      <point x="240" y="-272" type="line"/>
      <point x="240" y="324" type="line"/>
      <point x="151" y="324" type="line"/>
    </contour>
    <contour>
      <point x="15" y="0" type="curve" smooth="yes"/>
      <point x="352" y="0" type="line"/>
      <point x="352" y="78" type="line"/>
      <point x="-34" y="78" type="line"/>
      <point x="-34" y="16" type="line"/>
      <point x="-23" y="8"/>
      <point x="3" y="0"/>
    </contour>
  </outline>
</glyph>
<glyph name="uni07FD.narrow" format="2">
  <outline>
    <contour>
      <point x="-150" y="78" type="line"/>
      <point x="-150" y="0" type="line"/>
      <point x="150" y="0" type="line"/>
      <point x="150" y="78" type="line"/>
    </contour>
    <contour>
      <point x="-150" y="-99" type="line"/>
      <point x="-86" y="-99" type="line"/>
      <point x="-61" y="43" type="line"/>
      <point x="-150" y="43" type="line"/>
    </contour>
    <contour>
      <point x="86" y="-99" type="line"/>
      <point x="150" y="-99" type="line"/>
      <point x="150" y="43" type="line"/>
      <point x="61" y="43" type="line"/>
    </contour>
  </outline>
</glyph>
<glyph name="uni07FD.wide" format="2">
  <outline>
    <contour>
      <point x="-259" y="-97" type="line"/>
      <point x="-195" y="-97" type="line"/>
      <point x="-170" y="35" type="line"/>
      <point x="-259" y="35" type="line"/>
    </contour>
    <contour>
      <point x="195" y="-97" type="line"/>
      <point x="259" y="-97" type="line"/>
      <point x="259" y="35" type="line"/>
      <point x="170" y="35" type="line"/>
    </contour>
    <contour>
      <point x="-259" y="78" type="line"/>
      <point x="-259" y="0" type="line"/>
      <point x="259" y="0" type="line"/>
      <point x="259" y="78" type="line"/>
    </contour>
  </outline>
</glyph>
<glyph name="uni07FD.wideopen" format="2">
  <outline>
    <contour>
      <point x="210" y="-97" type="line"/>
      <point x="278" y="-97" type="line"/>
      <point x="278" y="0" type="line"/>
      <point x="271" y="15" type="line"/>
      <point x="184" y="15" type="line"/>
      <point x="182" y="0" type="line"/>
    </contour>
    <contour>
      <point x="-210" y="-97" type="line"/>
      <point x="-182" y="0" type="line"/>
      <point x="-184" y="15" type="line"/>
      <point x="-271" y="15" type="line"/>
      <point x="-278" y="0" type="line"/>
      <point x="-278" y="-97" type="line"/>
    </contour>
  </outline>
</glyph>
<glyph name="uni07FD.wider" format="2">
  <outline>
    <contour>
      <point x="-310" y="78" type="line"/>
      <point x="-310" y="0" type="line"/>
      <point x="310" y="0" type="line"/>
      <point x="310" y="78" type="line"/>
    </contour>
    <contour>
      <point x="-310" y="-99" type="line"/>
      <point x="-246" y="-99" type="line"/>
      <point x="-221" y="43" type="line"/>
      <point x="-310" y="43" type="line"/>
    </contour>
    <contour>
      <point x="246" y="-99" type="line"/>
      <point x="310" y="-99" type="line"/>
      <point x="310" y="43" type="line"/>
      <point x="221" y="43" type="line"/>
    </contour>
  </outline>
</glyph>
<glyph name="uni07FD.widest" format="2">
  <outline>
    <contour>
      <point x="-360" y="78" type="line"/>
      <point x="-360" y="0" type="line"/>
      <point x="360" y="0" type="line"/>
      <point x="360" y="78" type="line"/>
    </contour>
    <contour>
      <point x="-360" y="-99" type="line"/>
      <point x="-296" y="-99" type="line"/>
      <point x="-271" y="43" type="line"/>
      <point x="-360" y="43" type="line"/>
    </contour>
    <contour>
      <point x="296" y="-99" type="line"/>
      <point x="360" y="-99" type="line"/>
      <point x="360" y="43" type="line"/>
      <point x="271" y="43" type="line"/>
    </contour>
  </outline>
</glyph>
